<?xml version="1.0" encoding="utf-8"?>
<!-- Generator: Adobe Illustrator 27.4.1, SVG Export Plug-In . SVG Version: 6.00 Build 0)  -->
<svg version="1.1" id="Capa_1" xmlns="http://www.w3.org/2000/svg" xmlns:xlink="http://www.w3.org/1999/xlink" x="0px" y="0px"
	 viewBox="0 0 354 115" style="enable-background:new 0 0 354 115;" xml:space="preserve">
<style type="text/css">
	.st0{display:none;fill:#C2B4D4;}
	.st1{fill-rule:evenodd;clip-rule:evenodd;fill:#EC761F;}
	.st2{fill:#EC761F;}
	.st3{fill:#F2F0F0;}
	.st4{font-family:'Arial-BoldMT';}
	.st5{font-size:66.186px;}
	.st6{letter-spacing:-1;}
	.st7{fill:#ED721D;}
	.st8{font-family:'AvenirNextLTPro-Bold';}
	.st9{font-size:10.778px;}
</style>
<rect x="8" y="386" class="st0" width="571" height="460"/>
<g>
	<g>
		<g>
			<g>
				<g>
					<g>
						<polygon class="st1" points="41.74,24.95 48.92,24.95 58.28,42.24 58.28,24.95 65.52,24.95 65.52,56.2 58.28,56.2 
							48.96,39.04 48.96,56.2 41.74,56.2 						"/>
						<path class="st1" d="M13.46,11.92H35.4c2.19,0.82,2.46,8.38-0.08,9.11H21.86c-2.85,0.22-3.34,7.03-0.69,8.64h10.7
							c3.43,0.27,5.52,1.77,6.16,4.7v16c-1.02,3.2-3.22,5.14-6.59,5.84H10.19c-2.94-1.42-2.77-8.22-0.02-9.11h13.77
							c1.15,0.02,2.08-0.68,2.5-1.98v-3.9c-0.29-1.81-1.04-3.03-2.8-3.07h-8.99c-3.86-0.68-6.4-2.86-7.02-7.23v-13.5
							C8.45,15.07,10.03,12.98,13.46,11.92"/>
						<polygon class="st1" points="97.05,24.95 117.59,24.95 117.59,31.62 104.73,31.62 104.73,36.59 116.66,36.59 116.66,42.97 
							104.73,42.97 104.73,49.12 117.96,49.12 117.96,56.2 97.05,56.2 						"/>
						<polygon class="st1" points="67.65,24.95 94.53,24.95 94.53,31.57 85.08,31.57 84.97,56.2 77.31,56.2 77.23,31.57 
							67.65,31.57 						"/>
						<polygon class="st1" points="98.43,16.58 98.43,14.54 127.74,14.54 127.74,66.28 96.22,66.28 90.33,61.27 84.62,66.28 
							62.58,66.28 62.58,64.4 84.62,64.4 90.33,59.19 96.22,64.4 125.92,64.4 125.92,16.58 						"/>
						<path class="st1" d="M143.88,14.7l-0.81,3.26h-0.24c-0.05-0.51-0.14-0.92-0.28-1.23c-0.2-0.45-0.47-0.79-0.8-1.03
							c-0.33-0.24-0.69-0.36-1.08-0.36c-0.37,0-0.7,0.14-0.98,0.42c-0.28,0.28-0.42,0.6-0.42,0.95c0,0.35,0.1,0.7,0.29,1.03
							c0.19,0.34,0.65,0.85,1.37,1.53c0.58,0.55,0.97,1.01,1.17,1.41c0.2,0.39,0.3,0.81,0.3,1.27c0,0.51-0.14,0.99-0.41,1.42
							c-0.28,0.44-0.68,0.77-1.2,1.01c-0.52,0.24-1.12,0.36-1.79,0.36c-0.41,0-0.93-0.06-1.55-0.18c-0.62-0.12-1.03-0.18-1.24-0.18
							c-0.16,0-0.31,0.02-0.44,0.08c-0.13,0.05-0.29,0.14-0.48,0.29h-0.28l0.87-3.65h0.27c0.06,0.64,0.19,1.18,0.39,1.63
							c0.2,0.45,0.48,0.8,0.86,1.05c0.37,0.25,0.79,0.37,1.27,0.37c0.47,0,0.87-0.15,1.18-0.46c0.32-0.31,0.48-0.67,0.48-1.09
							c0-0.35-0.09-0.69-0.27-1.02c-0.18-0.33-0.59-0.8-1.23-1.42c-0.64-0.62-1.08-1.18-1.33-1.68c-0.18-0.36-0.27-0.75-0.27-1.16
							c0-0.71,0.28-1.33,0.85-1.85c0.57-0.52,1.31-0.78,2.23-0.78c0.41,0,0.96,0.09,1.64,0.27c0.4,0.11,0.68,0.16,0.84,0.16
							c0.14,0,0.26-0.03,0.38-0.09c0.11-0.06,0.24-0.17,0.39-0.35H143.88z M147.32,14.7c0.29,0,0.54,0.1,0.75,0.3
							c0.2,0.21,0.31,0.45,0.31,0.74c0,0.29-0.1,0.53-0.31,0.74c-0.21,0.21-0.46,0.31-0.75,0.31c-0.29,0-0.54-0.1-0.74-0.31
							c-0.21-0.2-0.31-0.45-0.31-0.74c0-0.29,0.1-0.53,0.3-0.74C146.78,14.8,147.03,14.7,147.32,14.7 M147.9,17.97l-1.58,4.98
							c-0.09,0.29-0.13,0.47-0.13,0.56c0,0.05,0.02,0.11,0.06,0.15c0.04,0.05,0.08,0.07,0.13,0.07c0.08,0,0.16-0.04,0.24-0.11
							c0.21-0.18,0.47-0.51,0.76-0.99l0.25,0.15c-0.72,1.29-1.5,1.94-2.31,1.94c-0.31,0-0.56-0.08-0.75-0.26
							c-0.19-0.17-0.28-0.39-0.28-0.65c0-0.17,0.04-0.4,0.13-0.66l1.09-3.38c0.1-0.32,0.16-0.57,0.16-0.73c0-0.1-0.05-0.2-0.15-0.28
							c-0.09-0.08-0.23-0.12-0.39-0.12c-0.08,0-0.17,0-0.27,0.01l0.09-0.29l2.51-0.39H147.9z M152.58,17.97l-0.91,3.04
							c0.63-0.89,1.1-1.5,1.42-1.82c0.46-0.47,0.85-0.79,1.19-0.96c0.34-0.17,0.65-0.26,0.94-0.26c0.26,0,0.49,0.1,0.68,0.3
							c0.19,0.2,0.28,0.46,0.28,0.78c0,0.26-0.06,0.58-0.18,0.95l-0.97,2.98c-0.08,0.26-0.12,0.43-0.12,0.51
							c0,0.05,0.02,0.09,0.05,0.13c0.04,0.04,0.07,0.06,0.11,0.06c0.05,0,0.1-0.02,0.15-0.06c0.17-0.14,0.34-0.33,0.51-0.58
							c0.04-0.07,0.11-0.16,0.21-0.29l0.28,0.16c-0.71,1.15-1.45,1.72-2.24,1.72c-0.3,0-0.53-0.07-0.7-0.23
							c-0.17-0.15-0.25-0.34-0.25-0.57c0-0.2,0.06-0.5,0.18-0.89l0.97-3.03c0.07-0.2,0.1-0.35,0.1-0.44c0-0.05-0.03-0.1-0.07-0.14
							c-0.05-0.04-0.1-0.06-0.16-0.06c-0.2,0-0.44,0.12-0.72,0.37c-0.72,0.62-1.41,1.56-2.08,2.79l-0.61,2.1h-1.84l1.37-4.53
							c0.13-0.45,0.2-0.77,0.22-0.96c0-0.08-0.02-0.15-0.06-0.2c-0.04-0.05-0.11-0.1-0.2-0.13c-0.1-0.03-0.27-0.05-0.54-0.05
							l0.06-0.28l2.5-0.42H152.58z M165.35,14.7l-2.42,7.92c-0.15,0.5-0.23,0.8-0.23,0.9c0,0.05,0.02,0.1,0.06,0.13
							c0.04,0.04,0.08,0.06,0.12,0.06c0.08,0,0.17-0.04,0.28-0.12c0.18-0.13,0.39-0.38,0.64-0.75l0.26,0.14
							c-0.67,1.17-1.42,1.75-2.23,1.75c-0.29,0-0.51-0.07-0.66-0.22c-0.16-0.15-0.23-0.33-0.23-0.56c0-0.22,0.06-0.54,0.19-0.95
							l0.23-0.72c-0.6,1.04-1.11,1.73-1.55,2.08c-0.33,0.25-0.66,0.38-0.98,0.38c-0.35,0-0.66-0.14-0.9-0.43
							c-0.25-0.29-0.37-0.71-0.37-1.26c0-0.7,0.16-1.39,0.48-2.08c0.32-0.68,0.68-1.26,1.1-1.72c0.42-0.45,0.81-0.78,1.19-0.98
							c0.38-0.19,0.75-0.29,1.11-0.29c0.19,0,0.36,0.04,0.5,0.12c0.15,0.08,0.31,0.22,0.5,0.44l0.55-1.75
							c0.14-0.45,0.22-0.77,0.22-0.97c0-0.12-0.05-0.22-0.14-0.3c-0.1-0.08-0.23-0.12-0.39-0.12c-0.08,0-0.17,0.01-0.28,0.02
							l0.06-0.28l2.46-0.42H165.35z M162.12,19.2c0-0.29-0.06-0.5-0.17-0.63c-0.12-0.13-0.26-0.2-0.41-0.2
							c-0.16,0-0.33,0.08-0.5,0.23c-0.35,0.3-0.7,0.91-1.08,1.82c-0.37,0.91-0.56,1.68-0.56,2.3c0,0.23,0.04,0.39,0.13,0.5
							c0.08,0.11,0.17,0.16,0.27,0.16c0.17,0,0.34-0.08,0.51-0.23c0.41-0.36,0.82-0.97,1.22-1.85
							C161.92,20.44,162.12,19.73,162.12,19.2 M168.39,14.7c0.3,0,0.55,0.1,0.75,0.3c0.2,0.21,0.31,0.45,0.31,0.74
							c0,0.29-0.1,0.53-0.31,0.74c-0.21,0.21-0.46,0.31-0.75,0.31c-0.29,0-0.54-0.1-0.74-0.31c-0.21-0.2-0.31-0.45-0.31-0.74
							c0-0.29,0.1-0.53,0.31-0.74C167.85,14.8,168.1,14.7,168.39,14.7 M168.97,17.97l-1.58,4.98c-0.09,0.29-0.13,0.47-0.13,0.56
							c0,0.05,0.02,0.11,0.06,0.15c0.04,0.05,0.09,0.07,0.14,0.07c0.08,0,0.16-0.04,0.24-0.11c0.21-0.18,0.46-0.51,0.76-0.99
							l0.25,0.15c-0.73,1.29-1.5,1.94-2.32,1.94c-0.31,0-0.56-0.08-0.75-0.26c-0.18-0.17-0.28-0.39-0.28-0.65
							c0-0.17,0.04-0.4,0.13-0.66l1.09-3.38c0.1-0.32,0.16-0.57,0.16-0.73c0-0.1-0.05-0.2-0.15-0.28c-0.1-0.08-0.23-0.12-0.4-0.12
							c-0.08,0-0.17,0-0.27,0.01l0.09-0.29l2.51-0.39H168.97z M175.16,22.84l0.22,0.19c-0.46,0.54-0.92,0.94-1.37,1.19
							c-0.6,0.34-1.22,0.51-1.86,0.51c-0.43,0-0.81-0.09-1.14-0.27c-0.33-0.18-0.57-0.43-0.73-0.76c-0.16-0.33-0.24-0.66-0.24-1.01
							c0-0.77,0.21-1.53,0.64-2.28c0.42-0.75,0.98-1.34,1.68-1.78c0.7-0.44,1.38-0.65,2.05-0.65c0.54,0,0.94,0.12,1.22,0.35
							c0.27,0.23,0.41,0.53,0.41,0.87c0,0.32-0.1,0.58-0.31,0.8c-0.21,0.22-0.44,0.33-0.69,0.33c-0.22,0-0.41-0.07-0.55-0.21
							c-0.15-0.14-0.22-0.31-0.22-0.5c0-0.25,0.13-0.48,0.39-0.67c0.18-0.13,0.27-0.25,0.27-0.35c0-0.08-0.04-0.15-0.11-0.21
							c-0.1-0.07-0.22-0.11-0.37-0.11c-0.4,0-0.78,0.16-1.13,0.48c-0.47,0.43-0.83,0.97-1.07,1.62c-0.25,0.65-0.37,1.27-0.37,1.86
							c0,0.46,0.13,0.83,0.38,1.11c0.25,0.28,0.55,0.41,0.91,0.41c0.3,0,0.64-0.08,0.99-0.23C174.5,23.38,174.84,23.15,175.16,22.84
							 M183.71,18.07l-1.4,4.7l-0.15,0.57c-0.01,0.07-0.02,0.12-0.02,0.16c0,0.05,0.02,0.1,0.06,0.15c0.04,0.04,0.08,0.06,0.12,0.06
							c0.1,0,0.23-0.07,0.41-0.23c0.07-0.06,0.24-0.28,0.51-0.65l0.25,0.13c-0.34,0.61-0.7,1.06-1.08,1.33
							c-0.38,0.28-0.79,0.42-1.23,0.42c-0.27,0-0.48-0.07-0.62-0.21c-0.14-0.14-0.21-0.31-0.21-0.52c0-0.18,0.08-0.52,0.23-1.03
							l0.17-0.57c-0.55,0.94-1.08,1.6-1.59,1.99c-0.29,0.22-0.61,0.34-0.94,0.34c-0.44,0-0.76-0.18-0.95-0.53
							c-0.19-0.35-0.29-0.76-0.29-1.21c0-0.66,0.2-1.43,0.62-2.29c0.41-0.86,0.95-1.55,1.62-2.08c0.55-0.43,1.07-0.65,1.55-0.65
							c0.27,0,0.48,0.07,0.65,0.23c0.16,0.15,0.28,0.43,0.36,0.84l0.26-0.87L183.71,18.07z M181.42,19.42
							c0-0.38-0.06-0.66-0.18-0.83c-0.09-0.12-0.21-0.18-0.35-0.18c-0.15,0-0.3,0.07-0.46,0.21c-0.32,0.29-0.67,0.88-1.04,1.77
							c-0.37,0.89-0.56,1.66-0.56,2.31c0,0.25,0.04,0.43,0.13,0.54c0.08,0.11,0.18,0.17,0.27,0.17c0.22,0,0.44-0.12,0.66-0.37
							c0.31-0.35,0.6-0.77,0.85-1.28C181.19,20.89,181.42,20.1,181.42,19.42 M188.83,16.24l-0.6,1.93h0.82l-0.25,0.81h-0.81
							l-1.3,4.16c-0.08,0.26-0.13,0.46-0.13,0.59c0,0.04,0.02,0.08,0.07,0.11c0.04,0.03,0.09,0.05,0.14,0.05
							c0.08,0,0.17-0.03,0.25-0.1c0.22-0.17,0.48-0.45,0.77-0.86l0.25,0.15c-0.33,0.57-0.69,0.99-1.09,1.25
							c-0.4,0.26-0.79,0.4-1.17,0.4c-0.32,0-0.58-0.08-0.76-0.24c-0.18-0.16-0.27-0.37-0.27-0.61c0-0.27,0.06-0.63,0.2-1.06
							l1.21-3.83h-0.92l0.14-0.53c0.58-0.22,1.09-0.48,1.51-0.78c0.43-0.3,0.94-0.78,1.55-1.44H188.83z M193.89,17.97
							c0.38,0,0.73,0.09,1.06,0.26c0.33,0.17,0.58,0.41,0.75,0.72c0.17,0.31,0.26,0.64,0.26,1.02c0,0.76-0.22,1.53-0.65,2.29
							c-0.43,0.76-1,1.37-1.71,1.81c-0.71,0.44-1.42,0.66-2.13,0.66c-0.65,0-1.15-0.19-1.5-0.57c-0.36-0.38-0.53-0.85-0.53-1.4
							c0-0.66,0.13-1.27,0.4-1.85c0.26-0.57,0.6-1.07,1.01-1.5c0.41-0.43,0.88-0.77,1.4-1.04C192.78,18.1,193.33,17.97,193.89,17.97
							 M193.6,18.34c-0.25,0-0.46,0.07-0.63,0.22c-0.33,0.3-0.71,0.99-1.13,2.08c-0.42,1.09-0.63,2.08-0.63,2.95
							c0,0.22,0.07,0.4,0.2,0.54c0.13,0.14,0.29,0.21,0.47,0.21c0.19,0,0.35-0.06,0.49-0.17c0.21-0.17,0.47-0.55,0.77-1.14
							c0.31-0.59,0.56-1.24,0.75-1.96c0.19-0.71,0.29-1.37,0.29-1.96c0-0.25-0.06-0.44-0.18-0.57
							C193.89,18.41,193.75,18.34,193.6,18.34 M140.51,28.45l3.02,6.43l1.35-4.68c0.07-0.26,0.11-0.48,0.11-0.68
							c0-0.24-0.08-0.43-0.22-0.57c-0.15-0.14-0.41-0.23-0.77-0.25l0.08-0.25h3.05l-0.07,0.25c-0.39,0.02-0.71,0.13-0.97,0.32
							c-0.26,0.2-0.47,0.59-0.65,1.17l-2.3,7.97h-0.25l-3.92-8.18l-1.84,6.38c-0.06,0.22-0.09,0.43-0.09,0.6
							c0,0.26,0.08,0.47,0.25,0.62c0.17,0.16,0.44,0.23,0.81,0.23l-0.06,0.25h-3.16l0.07-0.25c0.27,0,0.46-0.02,0.58-0.07
							c0.2-0.08,0.4-0.22,0.58-0.44c0.19-0.22,0.35-0.53,0.47-0.93l2.02-7c-0.24-0.29-0.44-0.47-0.6-0.55
							c-0.16-0.08-0.4-0.12-0.72-0.13l0.06-0.25H140.51z M153.47,31.6l-1.69,0.1l-0.26,0.87c-0.08-0.41-0.2-0.69-0.36-0.84
							c-0.16-0.15-0.38-0.23-0.65-0.23c-0.49,0-1,0.22-1.55,0.65c-0.67,0.52-1.21,1.21-1.62,2.08c-0.41,0.86-0.62,1.62-0.62,2.29
							c0,0.45,0.1,0.85,0.29,1.21c0.2,0.36,0.51,0.53,0.95,0.53c0.34,0,0.65-0.11,0.94-0.34c0.51-0.39,1.04-1.05,1.59-1.99
							l-0.17,0.58c-0.16,0.5-0.23,0.84-0.23,1.02c0,0.21,0.07,0.38,0.21,0.52c0.14,0.14,0.35,0.2,0.62,0.2
							c0.44,0,0.85-0.14,1.23-0.42c0.38-0.28,0.74-0.72,1.08-1.34L153,36.37c-0.27,0.37-0.44,0.59-0.51,0.65
							c-0.17,0.15-0.31,0.22-0.41,0.22c-0.04,0-0.08-0.02-0.12-0.06c-0.04-0.04-0.06-0.09-0.06-0.15c0-0.03,0.01-0.09,0.02-0.16
							l0.15-0.57L153.47,31.6z M151.18,32.95c0,0.68-0.23,1.47-0.69,2.35c-0.25,0.5-0.54,0.93-0.85,1.28
							c-0.22,0.24-0.44,0.37-0.65,0.37c-0.1,0-0.19-0.06-0.28-0.17c-0.08-0.11-0.13-0.29-0.13-0.54c0-0.65,0.18-1.42,0.56-2.31
							c0.37-0.89,0.72-1.48,1.04-1.77c0.16-0.14,0.31-0.21,0.46-0.21c0.15,0,0.26,0.06,0.35,0.17
							C151.12,32.29,151.18,32.57,151.18,32.95 M159.77,36.37l0.22,0.19c-0.46,0.55-0.92,0.94-1.37,1.19
							c-0.6,0.34-1.22,0.51-1.86,0.51c-0.43,0-0.81-0.09-1.14-0.27c-0.33-0.18-0.58-0.43-0.73-0.76c-0.16-0.33-0.24-0.67-0.24-1.01
							c0-0.77,0.21-1.53,0.64-2.28c0.43-0.75,0.98-1.34,1.68-1.78c0.7-0.44,1.38-0.66,2.06-0.66c0.54,0,0.94,0.12,1.22,0.35
							c0.27,0.24,0.41,0.53,0.41,0.87c0,0.31-0.1,0.58-0.31,0.8c-0.21,0.22-0.44,0.33-0.69,0.33c-0.22,0-0.4-0.07-0.55-0.21
							c-0.15-0.14-0.22-0.31-0.22-0.5c0-0.25,0.13-0.48,0.39-0.67c0.18-0.13,0.27-0.24,0.27-0.34c0-0.08-0.04-0.16-0.11-0.21
							c-0.09-0.07-0.22-0.11-0.37-0.11c-0.4,0-0.78,0.16-1.13,0.48c-0.47,0.43-0.83,0.97-1.07,1.62c-0.25,0.65-0.37,1.27-0.37,1.86
							c0,0.46,0.13,0.83,0.38,1.11c0.25,0.28,0.55,0.42,0.9,0.42c0.3,0,0.64-0.08,0.99-0.23C159.11,36.91,159.45,36.68,159.77,36.37
							 M164.59,28.24c0.29,0,0.55,0.1,0.75,0.3c0.2,0.21,0.31,0.45,0.31,0.74c0,0.29-0.1,0.53-0.31,0.74
							c-0.21,0.2-0.46,0.3-0.75,0.3c-0.29,0-0.54-0.1-0.74-0.3c-0.21-0.21-0.31-0.45-0.31-0.74c0-0.29,0.1-0.53,0.31-0.74
							C164.05,28.34,164.3,28.24,164.59,28.24 M165.17,31.5l-1.58,4.99c-0.09,0.29-0.13,0.47-0.13,0.56c0,0.05,0.02,0.1,0.06,0.15
							c0.04,0.05,0.09,0.07,0.13,0.07c0.08,0,0.16-0.04,0.24-0.11c0.21-0.18,0.46-0.51,0.76-0.99l0.25,0.15
							c-0.73,1.29-1.5,1.94-2.31,1.94c-0.31,0-0.56-0.08-0.75-0.25c-0.18-0.17-0.28-0.39-0.28-0.65c0-0.17,0.04-0.4,0.13-0.66
							l1.09-3.38c0.1-0.32,0.16-0.57,0.16-0.73c0-0.1-0.05-0.2-0.15-0.27c-0.09-0.08-0.23-0.12-0.39-0.12c-0.08,0-0.17,0-0.28,0.01
							l0.09-0.29l2.51-0.39H165.17z M170.67,31.5c0.38,0,0.73,0.09,1.06,0.26c0.33,0.17,0.58,0.41,0.75,0.72
							c0.17,0.31,0.25,0.64,0.25,1.02c0,0.77-0.22,1.53-0.65,2.29c-0.43,0.76-1,1.37-1.7,1.81c-0.71,0.44-1.42,0.66-2.13,0.66
							c-0.65,0-1.15-0.19-1.5-0.57c-0.36-0.38-0.53-0.85-0.53-1.4c0-0.65,0.13-1.27,0.4-1.84c0.26-0.57,0.6-1.07,1.01-1.5
							c0.41-0.43,0.87-0.77,1.4-1.04C169.55,31.63,170.1,31.5,170.67,31.5 M170.37,31.88c-0.25,0-0.46,0.07-0.63,0.22
							c-0.33,0.3-0.71,0.99-1.13,2.08c-0.42,1.09-0.63,2.08-0.63,2.95c0,0.22,0.07,0.4,0.2,0.54c0.13,0.14,0.29,0.22,0.47,0.22
							c0.18,0,0.35-0.06,0.49-0.17c0.21-0.17,0.47-0.55,0.77-1.14c0.31-0.59,0.56-1.24,0.75-1.96c0.2-0.72,0.29-1.37,0.29-1.96
							c0-0.25-0.06-0.44-0.18-0.57C170.67,31.94,170.53,31.88,170.37,31.88 M177.68,31.5l-0.91,3.04c0.63-0.89,1.1-1.5,1.42-1.82
							c0.46-0.47,0.85-0.79,1.19-0.96c0.33-0.17,0.65-0.26,0.94-0.26c0.26,0,0.49,0.1,0.68,0.3c0.19,0.2,0.28,0.46,0.28,0.78
							c0,0.26-0.06,0.57-0.18,0.95l-0.98,2.98c-0.08,0.26-0.13,0.43-0.13,0.51c0,0.05,0.02,0.09,0.05,0.13
							c0.04,0.03,0.07,0.05,0.11,0.05c0.05,0,0.1-0.02,0.15-0.05c0.17-0.14,0.34-0.33,0.51-0.58c0.04-0.07,0.11-0.16,0.21-0.29
							l0.28,0.16c-0.71,1.15-1.45,1.72-2.23,1.72c-0.3,0-0.53-0.07-0.7-0.23c-0.17-0.15-0.25-0.34-0.25-0.57
							c0-0.2,0.06-0.49,0.18-0.89l0.97-3.03c0.07-0.2,0.1-0.35,0.1-0.44c0-0.05-0.03-0.1-0.07-0.14c-0.05-0.04-0.1-0.06-0.16-0.06
							c-0.2,0-0.44,0.12-0.72,0.37c-0.72,0.62-1.41,1.55-2.08,2.79l-0.61,2.1h-1.84l1.37-4.53c0.13-0.45,0.2-0.77,0.22-0.96
							c0-0.08-0.02-0.15-0.06-0.2c-0.04-0.06-0.11-0.1-0.21-0.13c-0.09-0.03-0.27-0.05-0.53-0.05l0.06-0.27l2.5-0.42H177.68z
							 M189.39,31.6l-1.4,4.7l-0.15,0.57c-0.02,0.07-0.02,0.12-0.02,0.16c0,0.06,0.02,0.1,0.06,0.15c0.04,0.04,0.08,0.06,0.12,0.06
							c0.1,0,0.23-0.08,0.41-0.22c0.07-0.06,0.24-0.28,0.51-0.65l0.25,0.13c-0.34,0.61-0.7,1.06-1.08,1.34
							c-0.38,0.28-0.79,0.42-1.23,0.42c-0.27,0-0.48-0.07-0.62-0.2c-0.14-0.14-0.21-0.31-0.21-0.52c0-0.18,0.08-0.52,0.23-1.02
							l0.17-0.58c-0.55,0.94-1.09,1.6-1.59,1.99c-0.3,0.23-0.61,0.34-0.94,0.34c-0.44,0-0.76-0.18-0.95-0.53
							c-0.19-0.36-0.29-0.76-0.29-1.21c0-0.66,0.21-1.43,0.62-2.29c0.41-0.86,0.95-1.55,1.62-2.08c0.55-0.43,1.07-0.65,1.55-0.65
							c0.27,0,0.48,0.08,0.65,0.23c0.16,0.15,0.28,0.43,0.36,0.84l0.27-0.87L189.39,31.6z M187.1,32.95c0-0.38-0.06-0.66-0.18-0.83
							c-0.09-0.12-0.21-0.17-0.36-0.17c-0.15,0-0.3,0.07-0.46,0.21c-0.32,0.29-0.67,0.88-1.04,1.77c-0.37,0.89-0.56,1.66-0.56,2.31
							c0,0.25,0.04,0.43,0.13,0.54c0.08,0.11,0.18,0.17,0.28,0.17c0.22,0,0.43-0.13,0.65-0.37c0.31-0.35,0.6-0.77,0.85-1.28
							C186.87,34.42,187.1,33.64,187.1,32.95 M194.91,28.24l-2.45,8.02c-0.14,0.48-0.21,0.77-0.21,0.89c0,0.06,0.02,0.11,0.06,0.15
							c0.04,0.04,0.08,0.06,0.13,0.06c0.09,0,0.17-0.03,0.24-0.09c0.23-0.18,0.49-0.48,0.77-0.89l0.28,0.12
							c-0.46,0.69-0.9,1.17-1.34,1.47c-0.3,0.2-0.62,0.3-0.96,0.3c-0.32,0-0.57-0.08-0.75-0.25c-0.19-0.16-0.28-0.36-0.28-0.6
							c0-0.18,0.06-0.46,0.18-0.84l2-6.53c0.11-0.36,0.16-0.6,0.16-0.71c0-0.11-0.05-0.2-0.16-0.27c-0.15-0.09-0.36-0.14-0.66-0.12
							l0.06-0.27l2.49-0.42H194.91z M206.52,28.24l-2.42,7.92c-0.16,0.5-0.23,0.8-0.23,0.9c0,0.05,0.02,0.1,0.06,0.13
							c0.04,0.04,0.08,0.06,0.12,0.06c0.08,0,0.17-0.04,0.28-0.12c0.18-0.13,0.39-0.38,0.64-0.75l0.26,0.13
							c-0.67,1.17-1.42,1.75-2.23,1.75c-0.29,0-0.51-0.07-0.66-0.22c-0.16-0.15-0.23-0.34-0.23-0.57c0-0.22,0.06-0.54,0.18-0.95
							l0.23-0.72c-0.6,1.04-1.11,1.73-1.55,2.08c-0.33,0.25-0.66,0.38-0.98,0.38c-0.36,0-0.66-0.14-0.9-0.43
							c-0.25-0.29-0.37-0.7-0.37-1.26c0-0.7,0.16-1.39,0.48-2.08c0.32-0.68,0.68-1.26,1.1-1.71c0.42-0.46,0.81-0.79,1.19-0.98
							c0.38-0.2,0.75-0.29,1.11-0.29c0.19,0,0.36,0.04,0.5,0.12c0.15,0.08,0.31,0.22,0.5,0.44l0.55-1.75
							c0.14-0.45,0.21-0.77,0.21-0.97c0-0.12-0.05-0.22-0.14-0.3c-0.1-0.08-0.22-0.12-0.39-0.12c-0.08,0-0.17,0.01-0.28,0.02
							l0.06-0.27l2.46-0.42H206.52z M203.3,32.73c0-0.29-0.06-0.5-0.17-0.63c-0.12-0.13-0.25-0.2-0.41-0.2
							c-0.16,0-0.32,0.08-0.5,0.23c-0.34,0.3-0.7,0.91-1.08,1.82c-0.37,0.91-0.56,1.68-0.56,2.3c0,0.23,0.04,0.39,0.12,0.5
							c0.08,0.11,0.17,0.16,0.28,0.16c0.17,0,0.34-0.07,0.51-0.23c0.41-0.36,0.82-0.97,1.22-1.85
							C203.1,33.97,203.3,33.27,203.3,32.73 M208.52,35.4c-0.04,0.31-0.06,0.56-0.06,0.76c0,0.36,0.1,0.64,0.31,0.85
							c0.21,0.21,0.49,0.32,0.83,0.32c0.33,0,0.67-0.07,1.01-0.21c0.34-0.14,0.73-0.39,1.17-0.74l0.22,0.18
							c-0.55,0.61-1.08,1.05-1.6,1.31c-0.52,0.26-1.09,0.39-1.72,0.39c-0.79,0-1.34-0.19-1.65-0.56c-0.31-0.38-0.46-0.81-0.46-1.31
							c0-0.77,0.23-1.55,0.68-2.32c0.45-0.77,1.07-1.39,1.86-1.86c0.78-0.47,1.57-0.7,2.36-0.7c0.4,0,0.7,0.09,0.91,0.28
							c0.2,0.19,0.31,0.43,0.31,0.71c0,0.35-0.1,0.68-0.3,1c-0.28,0.44-0.63,0.8-1.05,1.07c-0.42,0.27-0.89,0.48-1.41,0.62
							C209.58,35.28,209.11,35.35,208.52,35.4 M208.59,35.04c0.42-0.06,0.75-0.14,0.98-0.25c0.23-0.1,0.46-0.27,0.68-0.51
							c0.22-0.23,0.42-0.52,0.58-0.88c0.16-0.36,0.24-0.69,0.24-1c0-0.13-0.04-0.23-0.11-0.31c-0.07-0.07-0.17-0.11-0.28-0.11
							c-0.23,0-0.49,0.16-0.78,0.47C209.38,33.02,208.94,33.89,208.59,35.04 M137.69,41.99h7.8l-0.73,2.58h-0.25
							c0.01-0.14,0.02-0.26,0.02-0.36c0-0.49-0.15-0.87-0.46-1.15c-0.3-0.27-0.82-0.42-1.54-0.46l-2.09,7.26
							c-0.12,0.4-0.18,0.7-0.18,0.9c0,0.18,0.08,0.32,0.22,0.43c0.15,0.11,0.45,0.17,0.9,0.17l-0.06,0.25h-4.8l0.09-0.25
							c0.49,0,0.84-0.09,1.07-0.28c0.22-0.18,0.43-0.59,0.61-1.23l2.09-7.25c-0.73,0.02-1.34,0.18-1.83,0.48
							c-0.49,0.3-0.94,0.8-1.35,1.49h-0.28L137.69,41.99z M148,45.03h-0.47l-2.39,0.48l-0.06,0.2c0.31,0,0.51,0.02,0.61,0.05
							c0.1,0.03,0.18,0.09,0.23,0.16c0.05,0.07,0.08,0.17,0.08,0.3c0,0.11-0.04,0.34-0.13,0.69l-1.36,4.69h1.75
							c0.28-0.99,0.49-1.66,0.63-2.02c0.14-0.36,0.32-0.8,0.57-1.31c0.24-0.52,0.45-0.89,0.62-1.11c0.16-0.22,0.3-0.36,0.4-0.41
							c0.05-0.03,0.1-0.04,0.15-0.04c0.04,0,0.08,0.01,0.12,0.04c0.04,0.03,0.1,0.13,0.2,0.31c0.09,0.17,0.23,0.26,0.42,0.26
							c0.17,0,0.33-0.1,0.47-0.3c0.22-0.31,0.33-0.7,0.33-1.15c0-0.26-0.06-0.47-0.18-0.61c-0.12-0.14-0.28-0.22-0.47-0.22
							c-0.28,0-0.55,0.13-0.81,0.4c-0.44,0.45-1.09,1.64-1.95,3.58L148,45.03z"/>
						<path class="st1" d="M157.51,45.13l-1.4,4.7l-0.15,0.58c-0.01,0.07-0.02,0.12-0.02,0.16c0,0.05,0.02,0.1,0.06,0.15
							c0.04,0.04,0.08,0.06,0.12,0.06c0.1,0,0.23-0.07,0.41-0.22c0.07-0.06,0.24-0.28,0.51-0.65l0.25,0.13
							c-0.34,0.61-0.7,1.06-1.08,1.34c-0.38,0.28-0.79,0.42-1.23,0.42c-0.27,0-0.48-0.07-0.62-0.2c-0.14-0.14-0.21-0.31-0.21-0.52
							c0-0.18,0.08-0.52,0.23-1.02l0.17-0.58c-0.55,0.94-1.08,1.61-1.59,1.99c-0.29,0.22-0.61,0.33-0.94,0.33
							c-0.44,0-0.76-0.18-0.95-0.53c-0.19-0.36-0.29-0.76-0.29-1.21c0-0.66,0.2-1.43,0.62-2.29c0.41-0.86,0.96-1.55,1.62-2.08
							c0.55-0.43,1.07-0.65,1.55-0.65c0.27,0,0.48,0.08,0.65,0.23s0.28,0.43,0.36,0.84l0.26-0.86L157.51,45.13z M155.22,46.48
							c0-0.38-0.06-0.66-0.18-0.83c-0.09-0.12-0.21-0.18-0.35-0.18c-0.15,0-0.3,0.07-0.46,0.21c-0.32,0.29-0.67,0.88-1.04,1.77
							c-0.37,0.89-0.56,1.66-0.56,2.31c0,0.25,0.04,0.43,0.13,0.54c0.08,0.11,0.18,0.17,0.28,0.17c0.22,0,0.43-0.12,0.65-0.37
							c0.31-0.35,0.6-0.77,0.85-1.28C154.99,47.96,155.22,47.17,155.22,46.48 M163.13,41.77l-1.27,4.26c0.36-0.4,0.66-0.67,0.9-0.8
							c0.24-0.13,0.5-0.2,0.78-0.2c0.54,0,0.95,0.2,1.22,0.61c0.27,0.41,0.41,0.88,0.41,1.41c0,1.27-0.46,2.41-1.37,3.41
							c-0.81,0.88-1.73,1.32-2.77,1.32c-0.77,0-1.58-0.22-2.44-0.68l2.2-7.47c0.1-0.35,0.16-0.6,0.18-0.75
							c0-0.12-0.05-0.22-0.15-0.29c-0.14-0.1-0.36-0.15-0.66-0.13l0.06-0.29l2.47-0.42H163.13z M160.34,51.17
							c0.22,0.14,0.41,0.21,0.58,0.21c0.24,0,0.44-0.05,0.61-0.15c0.26-0.16,0.53-0.45,0.82-0.87c0.28-0.42,0.52-0.93,0.71-1.53
							c0.19-0.59,0.28-1.19,0.28-1.78c0-0.34-0.07-0.59-0.21-0.76c-0.14-0.18-0.31-0.26-0.49-0.26c-0.31,0-0.58,0.17-0.81,0.5
							c-0.15,0.21-0.32,0.67-0.51,1.37L160.34,51.17z M173.18,45.13l-1.4,4.7l-0.15,0.58c-0.01,0.07-0.02,0.12-0.02,0.16
							c0,0.05,0.02,0.1,0.06,0.15c0.04,0.04,0.08,0.06,0.12,0.06c0.1,0,0.23-0.07,0.41-0.22c0.07-0.06,0.24-0.28,0.51-0.65
							l0.25,0.13c-0.34,0.61-0.7,1.06-1.08,1.34c-0.38,0.28-0.79,0.42-1.23,0.42c-0.27,0-0.47-0.07-0.62-0.2
							c-0.14-0.14-0.21-0.31-0.21-0.52c0-0.18,0.08-0.52,0.23-1.02l0.17-0.58c-0.55,0.94-1.09,1.61-1.59,1.99
							c-0.3,0.22-0.61,0.33-0.95,0.33c-0.44,0-0.75-0.18-0.95-0.53c-0.2-0.36-0.29-0.76-0.29-1.21c0-0.66,0.21-1.43,0.62-2.29
							c0.41-0.86,0.95-1.55,1.63-2.08c0.55-0.43,1.07-0.65,1.55-0.65c0.27,0,0.48,0.08,0.65,0.23c0.16,0.15,0.28,0.43,0.36,0.84
							l0.26-0.86L173.18,45.13z M170.89,46.48c0-0.38-0.06-0.66-0.18-0.83c-0.09-0.12-0.21-0.18-0.35-0.18
							c-0.15,0-0.31,0.07-0.46,0.21c-0.32,0.29-0.67,0.88-1.04,1.77c-0.37,0.89-0.56,1.66-0.56,2.31c0,0.25,0.04,0.43,0.13,0.54
							c0.08,0.11,0.18,0.17,0.28,0.17c0.22,0,0.43-0.12,0.65-0.37c0.32-0.35,0.6-0.77,0.86-1.28
							C170.66,47.96,170.89,47.17,170.89,46.48 M177.19,41.77c0.29,0,0.54,0.1,0.74,0.31c0.2,0.2,0.3,0.45,0.3,0.74
							c0,0.29-0.1,0.53-0.31,0.73c-0.2,0.21-0.45,0.31-0.74,0.31c-0.3,0-0.54-0.1-0.75-0.31c-0.21-0.2-0.31-0.45-0.31-0.73
							c0-0.29,0.1-0.54,0.31-0.74C176.65,41.87,176.9,41.77,177.19,41.77 M177.89,45.03h-0.45l-2.51,0.39l-0.06,0.27
							c0.08,0,0.14-0.01,0.2-0.01c0.18,0,0.33,0.04,0.44,0.13c0.11,0.09,0.17,0.18,0.17,0.27c0,0.1-0.06,0.34-0.18,0.74l-1.61,5.45
							c-0.21,1.03-0.36,1.62-0.45,1.78c-0.13,0.24-0.29,0.36-0.47,0.36c-0.05,0-0.1-0.01-0.13-0.04c-0.03-0.03-0.05-0.06-0.05-0.09
							c0-0.03,0.03-0.07,0.08-0.13c0.13-0.14,0.2-0.28,0.2-0.42c0-0.15-0.05-0.27-0.16-0.37c-0.11-0.1-0.26-0.16-0.45-0.16
							c-0.25,0-0.45,0.08-0.61,0.23c-0.16,0.16-0.24,0.33-0.24,0.53c0,0.2,0.09,0.38,0.28,0.53c0.18,0.16,0.46,0.23,0.84,0.23
							c0.46,0,0.9-0.12,1.33-0.37c0.43-0.25,0.78-0.61,1.04-1.08c0.39-0.68,0.77-1.58,1.11-2.71L177.89,45.03z M185.59,45.13
							l-1.4,4.7l-0.15,0.58c-0.01,0.07-0.02,0.12-0.02,0.16c0,0.05,0.02,0.1,0.06,0.15c0.04,0.04,0.08,0.06,0.12,0.06
							c0.1,0,0.23-0.07,0.41-0.22c0.07-0.06,0.24-0.28,0.51-0.65l0.25,0.13c-0.34,0.61-0.7,1.06-1.08,1.34
							c-0.38,0.28-0.79,0.42-1.23,0.42c-0.27,0-0.48-0.07-0.62-0.2c-0.14-0.14-0.21-0.31-0.21-0.52c0-0.18,0.08-0.52,0.23-1.02
							l0.17-0.58c-0.55,0.94-1.08,1.61-1.59,1.99c-0.3,0.22-0.61,0.33-0.94,0.33c-0.44,0-0.76-0.18-0.95-0.53
							c-0.2-0.36-0.29-0.76-0.29-1.21c0-0.66,0.21-1.43,0.62-2.29c0.41-0.86,0.95-1.55,1.62-2.08c0.55-0.43,1.07-0.65,1.55-0.65
							c0.27,0,0.48,0.08,0.65,0.23c0.16,0.15,0.28,0.43,0.36,0.84l0.26-0.86L185.59,45.13z M183.3,46.48c0-0.38-0.06-0.66-0.18-0.83
							c-0.09-0.12-0.21-0.18-0.35-0.18c-0.15,0-0.3,0.07-0.46,0.21c-0.32,0.29-0.67,0.88-1.04,1.77c-0.37,0.89-0.56,1.66-0.56,2.31
							c0,0.25,0.04,0.43,0.13,0.54c0.08,0.11,0.18,0.17,0.27,0.17c0.22,0,0.44-0.12,0.66-0.37c0.31-0.35,0.6-0.77,0.85-1.28
							C183.07,47.96,183.3,47.17,183.3,46.48 M194.49,41.77l-2.42,7.92c-0.16,0.5-0.23,0.8-0.23,0.9c0,0.05,0.02,0.1,0.06,0.13
							c0.04,0.04,0.08,0.06,0.12,0.06c0.08,0,0.17-0.04,0.28-0.12c0.18-0.13,0.39-0.39,0.64-0.75l0.26,0.14
							c-0.67,1.17-1.42,1.75-2.23,1.75c-0.29,0-0.51-0.07-0.66-0.22c-0.16-0.15-0.23-0.34-0.23-0.56c0-0.22,0.06-0.54,0.18-0.95
							l0.23-0.72c-0.6,1.04-1.11,1.73-1.55,2.08c-0.33,0.25-0.66,0.38-0.98,0.38c-0.36,0-0.66-0.14-0.9-0.43
							c-0.24-0.29-0.37-0.71-0.37-1.26c0-0.7,0.16-1.4,0.48-2.08c0.32-0.68,0.68-1.26,1.1-1.71c0.42-0.46,0.81-0.79,1.19-0.98
							c0.38-0.2,0.75-0.29,1.11-0.29c0.19,0,0.36,0.04,0.5,0.12c0.15,0.08,0.31,0.22,0.5,0.44l0.55-1.75
							c0.14-0.45,0.22-0.77,0.22-0.97c0-0.12-0.05-0.22-0.14-0.3c-0.1-0.08-0.23-0.12-0.39-0.12c-0.07,0-0.17,0.01-0.28,0.02
							l0.06-0.28l2.46-0.42H194.49z M191.26,46.27c0-0.29-0.06-0.5-0.17-0.63c-0.12-0.13-0.25-0.2-0.41-0.2
							c-0.16,0-0.32,0.08-0.5,0.23c-0.34,0.3-0.7,0.91-1.08,1.82c-0.38,0.91-0.56,1.68-0.56,2.3c0,0.23,0.04,0.39,0.12,0.5
							c0.08,0.11,0.17,0.16,0.28,0.16c0.17,0,0.34-0.07,0.51-0.23c0.41-0.36,0.82-0.97,1.22-1.85
							C191.06,47.51,191.26,46.8,191.26,46.27 M199.03,45.03c0.38,0,0.73,0.09,1.06,0.26c0.33,0.17,0.58,0.41,0.75,0.72
							c0.17,0.31,0.25,0.64,0.25,1.02c0,0.76-0.22,1.53-0.65,2.29c-0.43,0.76-1,1.37-1.7,1.81c-0.71,0.44-1.42,0.66-2.13,0.66
							c-0.65,0-1.15-0.19-1.5-0.57c-0.36-0.38-0.53-0.85-0.53-1.4c0-0.65,0.13-1.27,0.4-1.84c0.26-0.57,0.6-1.07,1.01-1.5
							c0.41-0.43,0.88-0.77,1.4-1.04C197.91,45.16,198.46,45.03,199.03,45.03 M198.73,45.41c-0.25,0-0.46,0.07-0.63,0.22
							c-0.33,0.3-0.71,0.99-1.13,2.08c-0.42,1.09-0.63,2.08-0.63,2.95c0,0.22,0.07,0.4,0.2,0.54c0.13,0.14,0.29,0.21,0.47,0.21
							c0.18,0,0.35-0.06,0.49-0.17c0.21-0.17,0.47-0.55,0.77-1.14c0.31-0.59,0.55-1.24,0.75-1.96c0.19-0.72,0.29-1.37,0.29-1.96
							c0-0.25-0.06-0.43-0.18-0.57C199.03,45.48,198.89,45.41,198.73,45.41 M205.79,45.03l-1.27,3.98c0.86-1.94,1.51-3.14,1.95-3.59
							c0.26-0.26,0.52-0.4,0.81-0.4c0.19,0,0.35,0.07,0.47,0.22c0.12,0.14,0.18,0.35,0.18,0.61c0,0.46-0.11,0.84-0.33,1.15
							c-0.14,0.2-0.3,0.3-0.47,0.3c-0.19,0-0.33-0.09-0.42-0.26c-0.09-0.17-0.16-0.28-0.2-0.31c-0.04-0.03-0.08-0.04-0.12-0.04
							c-0.05,0-0.1,0.01-0.15,0.04c-0.1,0.05-0.24,0.2-0.4,0.41c-0.17,0.22-0.37,0.59-0.61,1.11c-0.24,0.52-0.43,0.96-0.57,1.32
							c-0.13,0.36-0.34,1.03-0.62,2.02h-1.75l1.36-4.69c0.09-0.35,0.13-0.58,0.13-0.69c0-0.13-0.03-0.23-0.08-0.3
							c-0.06-0.07-0.13-0.12-0.23-0.16c-0.1-0.03-0.3-0.05-0.61-0.05l0.06-0.2l2.39-0.48H205.79z M210.54,48.93
							c-0.04,0.31-0.06,0.56-0.06,0.76c0,0.35,0.11,0.64,0.31,0.85c0.21,0.21,0.49,0.32,0.83,0.32c0.33,0,0.67-0.07,1.01-0.21
							c0.34-0.14,0.73-0.39,1.17-0.75l0.22,0.18c-0.55,0.62-1.08,1.06-1.6,1.32c-0.52,0.26-1.09,0.39-1.72,0.39
							c-0.8,0-1.35-0.19-1.65-0.56c-0.31-0.38-0.46-0.81-0.46-1.31c0-0.77,0.23-1.55,0.68-2.32c0.45-0.77,1.07-1.39,1.86-1.86
							c0.78-0.47,1.57-0.7,2.36-0.7c0.4,0,0.7,0.1,0.91,0.28c0.2,0.19,0.31,0.43,0.31,0.71c0,0.34-0.1,0.68-0.3,1
							c-0.28,0.44-0.63,0.8-1.05,1.07c-0.42,0.27-0.89,0.48-1.41,0.62C211.59,48.81,211.12,48.88,210.54,48.93 M210.6,48.57
							c0.42-0.06,0.75-0.14,0.98-0.25c0.23-0.1,0.46-0.27,0.68-0.51c0.23-0.23,0.42-0.52,0.58-0.88c0.16-0.35,0.24-0.69,0.24-1
							c0-0.13-0.04-0.23-0.11-0.31c-0.07-0.07-0.17-0.11-0.28-0.11c-0.23,0-0.49,0.16-0.78,0.47
							C211.39,46.56,210.95,47.42,210.6,48.57 M220.7,45.03l-0.31,2.19h-0.26c-0.04-0.56-0.21-1-0.52-1.33
							c-0.31-0.33-0.65-0.49-1-0.49c-0.22,0-0.4,0.06-0.54,0.19c-0.15,0.13-0.22,0.28-0.22,0.46c0,0.15,0.03,0.29,0.09,0.42
							c0.06,0.13,0.2,0.31,0.42,0.54c0.75,0.8,1.21,1.35,1.37,1.65c0.16,0.3,0.24,0.62,0.24,0.97c0,0.37-0.1,0.72-0.28,1.05
							c-0.19,0.33-0.47,0.6-0.85,0.8c-0.38,0.2-0.77,0.3-1.18,0.3c-0.28,0-0.62-0.05-1.02-0.15c-0.27-0.07-0.47-0.11-0.6-0.11
							c-0.12,0-0.21,0.02-0.28,0.05c-0.06,0.03-0.14,0.1-0.22,0.21h-0.26l0.35-2.35h0.23c0.17,0.58,0.32,0.99,0.47,1.23
							c0.15,0.24,0.34,0.44,0.58,0.58c0.24,0.14,0.48,0.22,0.7,0.22c0.26,0,0.48-0.08,0.65-0.24c0.17-0.17,0.26-0.36,0.26-0.59
							c0-0.22-0.06-0.43-0.17-0.64c-0.11-0.21-0.37-0.53-0.77-0.97c-0.55-0.6-0.92-1.06-1.1-1.39c-0.13-0.24-0.19-0.51-0.19-0.81
							c0-0.51,0.19-0.94,0.56-1.28c0.37-0.34,0.9-0.51,1.57-0.51c0.29,0,0.65,0.05,1.08,0.16c0.21,0.06,0.38,0.08,0.51,0.08
							c0.19,0,0.34-0.08,0.45-0.24H220.7z M233.25,41.77l-2.42,7.92c-0.16,0.5-0.23,0.8-0.23,0.9c0,0.05,0.02,0.1,0.06,0.13
							c0.04,0.04,0.08,0.06,0.12,0.06c0.08,0,0.17-0.04,0.28-0.12c0.18-0.13,0.39-0.39,0.64-0.75l0.26,0.14
							c-0.67,1.17-1.42,1.75-2.23,1.75c-0.29,0-0.51-0.07-0.66-0.22c-0.16-0.15-0.23-0.34-0.23-0.56c0-0.22,0.06-0.54,0.18-0.95
							l0.23-0.72c-0.6,1.04-1.11,1.73-1.55,2.08c-0.34,0.25-0.66,0.38-0.98,0.38c-0.36,0-0.66-0.14-0.9-0.43
							c-0.25-0.29-0.37-0.71-0.37-1.26c0-0.7,0.16-1.4,0.47-2.08c0.32-0.68,0.68-1.26,1.1-1.71c0.42-0.46,0.81-0.79,1.19-0.98
							c0.38-0.2,0.75-0.29,1.11-0.29c0.19,0,0.36,0.04,0.5,0.12c0.14,0.08,0.31,0.22,0.5,0.44l0.55-1.75
							c0.14-0.45,0.21-0.77,0.21-0.97c0-0.12-0.05-0.22-0.14-0.3c-0.1-0.08-0.23-0.12-0.39-0.12c-0.08,0-0.17,0.01-0.28,0.02
							l0.06-0.28l2.46-0.42H233.25z M230.02,46.27c0-0.29-0.06-0.5-0.17-0.63c-0.12-0.13-0.25-0.2-0.41-0.2
							c-0.16,0-0.32,0.08-0.5,0.23c-0.35,0.3-0.7,0.91-1.08,1.82c-0.38,0.91-0.56,1.68-0.56,2.3c0,0.23,0.04,0.39,0.12,0.5
							c0.08,0.11,0.17,0.16,0.27,0.16c0.17,0,0.34-0.07,0.51-0.23c0.41-0.36,0.82-0.97,1.22-1.85
							C229.82,47.51,230.02,46.8,230.02,46.27 M235.25,48.93c-0.04,0.31-0.06,0.56-0.06,0.76c0,0.35,0.1,0.64,0.31,0.85
							c0.21,0.21,0.48,0.32,0.83,0.32c0.33,0,0.67-0.07,1-0.21c0.34-0.14,0.73-0.39,1.17-0.75l0.22,0.18
							c-0.55,0.62-1.08,1.06-1.6,1.32c-0.52,0.26-1.09,0.39-1.72,0.39c-0.79,0-1.34-0.19-1.65-0.56c-0.3-0.38-0.46-0.81-0.46-1.31
							c0-0.77,0.23-1.55,0.68-2.32c0.45-0.77,1.07-1.39,1.86-1.86c0.78-0.47,1.57-0.7,2.36-0.7c0.4,0,0.7,0.1,0.91,0.28
							c0.21,0.19,0.31,0.43,0.31,0.71c0,0.34-0.1,0.68-0.3,1c-0.28,0.44-0.63,0.8-1.05,1.07c-0.42,0.27-0.89,0.48-1.41,0.62
							C236.3,48.81,235.84,48.88,235.25,48.93 M235.32,48.57c0.42-0.06,0.75-0.14,0.98-0.25c0.23-0.1,0.46-0.27,0.68-0.51
							c0.22-0.23,0.42-0.52,0.58-0.88c0.16-0.35,0.24-0.69,0.24-1c0-0.13-0.04-0.23-0.11-0.31c-0.07-0.07-0.17-0.11-0.28-0.11
							c-0.23,0-0.49,0.16-0.78,0.47C236.11,46.56,235.67,47.42,235.32,48.57 M248.38,41.77l-2.45,8.02
							c-0.14,0.48-0.21,0.77-0.21,0.89c0,0.06,0.02,0.11,0.06,0.15c0.04,0.04,0.08,0.06,0.13,0.06c0.09,0,0.17-0.03,0.24-0.09
							c0.23-0.18,0.49-0.47,0.77-0.89l0.28,0.12c-0.46,0.69-0.9,1.17-1.34,1.47c-0.3,0.2-0.62,0.3-0.96,0.3
							c-0.32,0-0.57-0.08-0.75-0.25c-0.19-0.17-0.28-0.37-0.28-0.6c0-0.18,0.06-0.46,0.18-0.85l2-6.53c0.11-0.36,0.16-0.6,0.16-0.71
							c0-0.11-0.05-0.2-0.16-0.27c-0.14-0.09-0.36-0.14-0.66-0.12l0.06-0.28l2.49-0.42H248.38z M255.27,45.13l-1.4,4.7l-0.15,0.58
							c-0.01,0.07-0.02,0.12-0.02,0.16c0,0.05,0.02,0.1,0.06,0.15c0.04,0.04,0.08,0.06,0.12,0.06c0.1,0,0.23-0.07,0.41-0.22
							c0.07-0.06,0.24-0.28,0.51-0.65l0.25,0.13c-0.34,0.61-0.7,1.06-1.08,1.34c-0.38,0.28-0.79,0.42-1.23,0.42
							c-0.27,0-0.48-0.07-0.62-0.2c-0.14-0.14-0.21-0.31-0.21-0.52c0-0.18,0.08-0.52,0.23-1.02l0.17-0.58
							c-0.55,0.94-1.08,1.61-1.59,1.99c-0.3,0.22-0.61,0.33-0.94,0.33c-0.44,0-0.76-0.18-0.95-0.53c-0.19-0.36-0.29-0.76-0.29-1.21
							c0-0.66,0.21-1.43,0.62-2.29c0.41-0.86,0.95-1.55,1.63-2.08c0.55-0.43,1.07-0.65,1.55-0.65c0.27,0,0.48,0.08,0.65,0.23
							s0.28,0.43,0.36,0.84l0.26-0.86L255.27,45.13z M252.98,46.48c0-0.38-0.06-0.66-0.18-0.83c-0.09-0.12-0.2-0.18-0.35-0.18
							c-0.15,0-0.3,0.07-0.46,0.21c-0.32,0.29-0.67,0.88-1.05,1.77c-0.37,0.89-0.56,1.66-0.56,2.31c0,0.25,0.04,0.43,0.13,0.54
							c0.08,0.11,0.18,0.17,0.27,0.17c0.22,0,0.43-0.12,0.66-0.37c0.31-0.35,0.6-0.77,0.85-1.28
							C252.75,47.96,252.98,47.17,252.98,46.48 M140.85,56.06l-1.07,3.73h0.33c0.87,0,1.5-0.11,1.9-0.34
							c0.4-0.22,0.74-0.63,1.02-1.2h0.25l-1.09,3.73h-0.25c0.05-0.25,0.06-0.45,0.06-0.61c0-0.26-0.08-0.47-0.23-0.64
							c-0.15-0.16-0.35-0.28-0.6-0.35c-0.16-0.04-0.49-0.07-1-0.07h-0.55l-0.93,3.23c-0.08,0.29-0.12,0.5-0.12,0.63
							c0,0.11,0.05,0.2,0.16,0.26c0.15,0.1,0.44,0.14,0.86,0.14c0.81,0,1.58-0.17,2.3-0.51c0.72-0.34,1.36-0.86,1.93-1.56h0.29
							l-1.01,2.64h-8.19l0.09-0.25c0.46,0,0.8-0.09,1.01-0.28c0.21-0.18,0.4-0.59,0.58-1.21l1.79-6.21c0.1-0.34,0.15-0.62,0.15-0.82
							c0-0.18-0.07-0.32-0.2-0.42c-0.13-0.1-0.43-0.16-0.91-0.19l0.06-0.25h7.82l-0.64,2.41h-0.25c-0.02-0.47-0.09-0.8-0.22-1
							c-0.2-0.3-0.47-0.52-0.8-0.66c-0.33-0.14-0.88-0.21-1.63-0.21H140.85z M153.73,55.3l-2.42,7.92c-0.16,0.49-0.23,0.8-0.23,0.9
							c0,0.05,0.02,0.1,0.06,0.13c0.04,0.04,0.08,0.06,0.12,0.06c0.08,0,0.17-0.04,0.28-0.12c0.18-0.13,0.39-0.38,0.64-0.75
							l0.26,0.14c-0.68,1.17-1.42,1.75-2.23,1.75c-0.29,0-0.51-0.07-0.66-0.22c-0.16-0.15-0.23-0.34-0.23-0.56
							c0-0.22,0.06-0.54,0.18-0.95l0.23-0.72c-0.6,1.04-1.11,1.73-1.55,2.08c-0.33,0.25-0.66,0.38-0.97,0.38
							c-0.36,0-0.66-0.14-0.91-0.43c-0.25-0.29-0.37-0.71-0.37-1.26c0-0.7,0.16-1.39,0.48-2.08c0.32-0.68,0.68-1.26,1.1-1.71
							c0.42-0.46,0.82-0.79,1.19-0.98c0.38-0.2,0.75-0.29,1.11-0.29c0.19,0,0.36,0.04,0.5,0.11c0.15,0.08,0.32,0.23,0.5,0.44
							l0.55-1.75c0.14-0.45,0.21-0.77,0.21-0.97c0-0.12-0.05-0.22-0.14-0.3c-0.1-0.08-0.22-0.12-0.39-0.12
							c-0.08,0-0.17,0.01-0.28,0.02l0.06-0.28l2.46-0.42H153.73z M150.5,59.8c0-0.29-0.06-0.5-0.17-0.63
							c-0.12-0.13-0.25-0.2-0.41-0.2c-0.16,0-0.32,0.08-0.5,0.23c-0.35,0.3-0.7,0.91-1.08,1.82c-0.38,0.91-0.56,1.68-0.56,2.3
							c0,0.23,0.04,0.39,0.12,0.5c0.08,0.11,0.17,0.16,0.28,0.16c0.17,0,0.34-0.07,0.51-0.23c0.41-0.36,0.82-0.97,1.22-1.85
							C150.3,61.04,150.5,60.33,150.5,59.8 M157.75,58.57l-1.52,4.8c-0.07,0.22-0.11,0.38-0.11,0.46c0,0.04,0.02,0.07,0.05,0.1
							c0.04,0.04,0.08,0.06,0.13,0.06c0.21,0,0.5-0.19,0.86-0.58c0.51-0.56,1.05-1.37,1.61-2.42l0.67-2.16l1.8-0.06l-1.41,4.7
							c-0.12,0.4-0.17,0.63-0.17,0.69c0,0.03,0.02,0.07,0.05,0.11c0.04,0.04,0.07,0.06,0.11,0.06c0.07,0,0.13-0.03,0.2-0.08
							c0.17-0.13,0.4-0.4,0.69-0.8l0.25,0.17c-0.67,1.15-1.4,1.72-2.2,1.72c-0.3,0-0.53-0.07-0.7-0.22
							c-0.17-0.15-0.26-0.34-0.26-0.58c0-0.26,0.06-0.58,0.19-0.97l0.36-1.2c-0.62,0.89-1.06,1.49-1.34,1.81
							c-0.42,0.47-0.78,0.78-1.08,0.93c-0.29,0.16-0.57,0.23-0.83,0.23c-0.25,0-0.47-0.09-0.65-0.27c-0.18-0.18-0.27-0.41-0.27-0.69
							c0-0.24,0.07-0.56,0.2-0.97l0.9-2.83c0.13-0.46,0.2-0.77,0.2-0.94c0-0.07-0.02-0.13-0.06-0.19c-0.04-0.05-0.09-0.1-0.17-0.13
							c-0.08-0.03-0.21-0.05-0.4-0.05l0.06-0.27l2.42-0.42H157.75z M167.61,63.44l0.22,0.19c-0.46,0.54-0.92,0.94-1.37,1.19
							c-0.6,0.34-1.22,0.5-1.86,0.5c-0.43,0-0.81-0.09-1.14-0.27c-0.33-0.18-0.57-0.43-0.73-0.76c-0.16-0.33-0.24-0.66-0.24-1.01
							c0-0.78,0.21-1.54,0.64-2.28c0.42-0.75,0.98-1.34,1.68-1.78c0.7-0.44,1.38-0.65,2.05-0.65c0.54,0,0.94,0.12,1.22,0.35
							c0.27,0.24,0.41,0.53,0.41,0.87c0,0.31-0.1,0.58-0.31,0.8c-0.21,0.22-0.44,0.33-0.69,0.33c-0.22,0-0.41-0.07-0.55-0.22
							c-0.15-0.14-0.22-0.31-0.22-0.5c0-0.26,0.13-0.48,0.39-0.66c0.18-0.13,0.27-0.25,0.27-0.35c0-0.08-0.04-0.15-0.11-0.2
							c-0.1-0.08-0.22-0.11-0.37-0.11c-0.4,0-0.78,0.16-1.13,0.48c-0.47,0.43-0.83,0.97-1.07,1.62c-0.25,0.65-0.37,1.27-0.37,1.86
							c0,0.47,0.13,0.84,0.38,1.11c0.25,0.28,0.55,0.42,0.9,0.42c0.31,0,0.64-0.08,0.99-0.23
							C166.95,63.98,167.29,63.75,167.61,63.44 M176.16,58.67l-1.41,4.7l-0.15,0.57c-0.01,0.07-0.02,0.12-0.02,0.16
							c0,0.05,0.02,0.1,0.06,0.15c0.04,0.04,0.08,0.06,0.12,0.06c0.1,0,0.23-0.08,0.41-0.23c0.07-0.06,0.24-0.28,0.51-0.65
							l0.25,0.13c-0.34,0.61-0.7,1.06-1.08,1.34c-0.38,0.28-0.79,0.42-1.23,0.42c-0.27,0-0.47-0.07-0.62-0.2
							c-0.14-0.14-0.21-0.31-0.21-0.52c0-0.18,0.08-0.52,0.23-1.02L173.2,63c-0.55,0.94-1.09,1.6-1.59,1.99
							c-0.3,0.22-0.61,0.33-0.94,0.33c-0.44,0-0.76-0.18-0.95-0.53c-0.2-0.35-0.29-0.76-0.29-1.21c0-0.66,0.21-1.43,0.62-2.29
							c0.41-0.86,0.95-1.55,1.62-2.08c0.55-0.43,1.07-0.65,1.55-0.65c0.27,0,0.48,0.07,0.65,0.23c0.17,0.15,0.28,0.43,0.36,0.84
							l0.26-0.87L176.16,58.67z M173.87,60.02c0-0.38-0.06-0.66-0.18-0.83c-0.09-0.12-0.2-0.18-0.35-0.18
							c-0.15,0-0.3,0.07-0.46,0.21c-0.32,0.29-0.67,0.88-1.04,1.77c-0.37,0.89-0.56,1.66-0.56,2.31c0,0.25,0.04,0.43,0.13,0.54
							c0.08,0.11,0.17,0.17,0.27,0.17c0.22,0,0.44-0.12,0.66-0.37c0.32-0.35,0.6-0.77,0.85-1.28
							C173.64,61.49,173.87,60.7,173.87,60.02"/>
						<path class="st1" d="M182.46,63.44l0.22,0.19c-0.46,0.54-0.92,0.94-1.37,1.19c-0.6,0.34-1.22,0.51-1.86,0.51
							c-0.43,0-0.81-0.09-1.14-0.27c-0.33-0.18-0.57-0.43-0.73-0.76c-0.16-0.33-0.24-0.66-0.24-1.01c0-0.78,0.21-1.54,0.64-2.28
							c0.42-0.75,0.99-1.34,1.68-1.78c0.7-0.44,1.38-0.65,2.06-0.65c0.54,0,0.94,0.12,1.22,0.35c0.27,0.24,0.41,0.53,0.41,0.87
							c0,0.31-0.1,0.58-0.31,0.8c-0.2,0.22-0.44,0.33-0.69,0.33c-0.22,0-0.4-0.07-0.55-0.22c-0.15-0.14-0.22-0.31-0.22-0.5
							c0-0.26,0.13-0.48,0.39-0.66c0.18-0.13,0.27-0.25,0.27-0.35c0-0.08-0.04-0.15-0.11-0.2c-0.1-0.08-0.22-0.11-0.37-0.11
							c-0.4,0-0.78,0.16-1.13,0.48c-0.47,0.43-0.83,0.97-1.07,1.62c-0.25,0.65-0.37,1.27-0.37,1.86c0,0.46,0.13,0.83,0.38,1.11
							c0.25,0.28,0.55,0.42,0.9,0.42c0.31,0,0.64-0.08,0.99-0.23C181.8,63.98,182.14,63.75,182.46,63.44 M187.29,55.3
							c0.29,0,0.54,0.1,0.75,0.3c0.2,0.21,0.31,0.45,0.31,0.74c0,0.29-0.1,0.53-0.31,0.74c-0.21,0.2-0.46,0.3-0.75,0.3
							c-0.29,0-0.54-0.1-0.74-0.3c-0.21-0.21-0.31-0.45-0.31-0.74c0-0.29,0.1-0.53,0.31-0.74C186.74,55.4,186.99,55.3,187.29,55.3
							 M187.87,58.57l-1.58,4.98c-0.09,0.29-0.13,0.47-0.13,0.56c0,0.06,0.02,0.11,0.06,0.15c0.04,0.04,0.08,0.07,0.13,0.07
							c0.08,0,0.16-0.04,0.24-0.11c0.21-0.18,0.46-0.51,0.76-0.99l0.25,0.15c-0.73,1.29-1.5,1.94-2.31,1.94
							c-0.31,0-0.56-0.08-0.75-0.26c-0.18-0.17-0.28-0.39-0.28-0.65c0-0.17,0.04-0.39,0.13-0.66l1.09-3.38
							c0.1-0.32,0.16-0.57,0.16-0.74c0-0.1-0.05-0.19-0.15-0.27c-0.09-0.08-0.23-0.12-0.39-0.12c-0.08,0-0.17,0-0.28,0.01l0.09-0.29
							l2.51-0.39H187.87z M193.36,58.57c0.38,0,0.73,0.09,1.06,0.26c0.33,0.17,0.58,0.41,0.75,0.72c0.17,0.31,0.25,0.65,0.25,1.02
							c0,0.76-0.22,1.53-0.65,2.29c-0.43,0.76-1,1.37-1.7,1.81c-0.71,0.44-1.42,0.66-2.13,0.66c-0.65,0-1.15-0.19-1.5-0.57
							c-0.36-0.38-0.53-0.85-0.53-1.4c0-0.65,0.13-1.27,0.4-1.84c0.26-0.57,0.6-1.07,1.01-1.5c0.41-0.43,0.87-0.77,1.4-1.04
							C192.24,58.7,192.79,58.57,193.36,58.57 M193.06,58.94c-0.25,0-0.46,0.07-0.63,0.22c-0.33,0.3-0.71,0.99-1.13,2.08
							c-0.42,1.09-0.63,2.08-0.63,2.95c0,0.22,0.07,0.4,0.2,0.54c0.13,0.14,0.29,0.21,0.47,0.21c0.18,0,0.35-0.06,0.49-0.17
							c0.21-0.17,0.47-0.55,0.77-1.14c0.31-0.59,0.56-1.25,0.75-1.96c0.2-0.71,0.29-1.37,0.29-1.96c0-0.25-0.06-0.44-0.18-0.57
							C193.36,59.01,193.22,58.94,193.06,58.94 M193.7,55.26h2.19l-2.4,2.48h-0.64L193.7,55.26z M200.38,58.57l-0.91,3.04
							c0.63-0.89,1.1-1.5,1.42-1.82c0.46-0.47,0.86-0.79,1.19-0.96c0.33-0.17,0.65-0.26,0.94-0.26c0.26,0,0.49,0.1,0.68,0.3
							c0.19,0.2,0.28,0.46,0.28,0.78c0,0.26-0.06,0.58-0.18,0.95l-0.98,2.97c-0.08,0.26-0.13,0.43-0.13,0.51
							c0,0.05,0.02,0.09,0.05,0.13c0.04,0.04,0.07,0.06,0.11,0.06c0.05,0,0.1-0.02,0.15-0.06c0.17-0.13,0.34-0.33,0.51-0.57
							c0.04-0.06,0.11-0.16,0.21-0.29l0.28,0.16c-0.71,1.15-1.45,1.73-2.24,1.73c-0.3,0-0.53-0.08-0.7-0.23
							c-0.17-0.15-0.26-0.34-0.26-0.57c0-0.2,0.06-0.49,0.19-0.89l0.97-3.03c0.07-0.2,0.1-0.35,0.1-0.44c0-0.05-0.03-0.1-0.07-0.14
							c-0.05-0.04-0.1-0.06-0.16-0.06c-0.2,0-0.44,0.12-0.72,0.37c-0.72,0.62-1.41,1.56-2.08,2.79l-0.61,2.1h-1.84l1.37-4.53
							c0.13-0.45,0.2-0.77,0.22-0.96c0-0.08-0.02-0.15-0.06-0.2c-0.04-0.06-0.11-0.1-0.21-0.13c-0.09-0.03-0.27-0.05-0.53-0.05
							l0.06-0.27l2.5-0.42H200.38z"/>
					</g>
					<g>
						<g>
							<polygon class="st1" points="266.28,95.13 347.48,95.13 347.48,74.67 347.48,73.9 347.48,12.26 316.27,12.26 316.27,15.06 
								345.22,15.06 345.22,74.36 312.37,74.33 306.6,68.87 300.57,74.61 266.28,74.61 							"/>
						</g>
					</g>
					<g>
						<path class="st2" d="M9.78,85.67H8.3l0.94-2.8h1.31L9.78,85.67z M11.95,85.67h-1.49l0.92-2.8h1.3L11.95,85.67z"/>
						<path class="st2" d="M19.42,85.13c0,0.42-0.08,0.79-0.24,1.08c-0.16,0.29-0.37,0.53-0.64,0.71c-0.27,0.18-0.58,0.31-0.93,0.39
							c-0.35,0.08-0.72,0.13-1.1,0.13h-0.88v2.75h-1.77v-7.3h2.69c0.4,0,0.77,0.04,1.12,0.12c0.35,0.08,0.65,0.21,0.91,0.38
							c0.26,0.18,0.46,0.41,0.61,0.69C19.35,84.36,19.42,84.71,19.42,85.13z M17.65,85.13c0-0.17-0.04-0.31-0.1-0.42
							c-0.07-0.11-0.16-0.2-0.28-0.26c-0.12-0.06-0.25-0.1-0.4-0.12c-0.15-0.02-0.3-0.03-0.46-0.03h-0.78v1.72h0.74
							c0.17,0,0.33-0.01,0.48-0.04c0.15-0.03,0.29-0.08,0.41-0.14c0.12-0.07,0.22-0.16,0.28-0.28
							C17.62,85.45,17.65,85.31,17.65,85.13z"/>
						<path class="st2" d="M28.13,86.5c0,0.58-0.1,1.1-0.3,1.58c-0.2,0.48-0.48,0.89-0.83,1.23c-0.36,0.34-0.78,0.6-1.27,0.79
							c-0.49,0.19-1.02,0.28-1.59,0.28c-0.57,0-1.1-0.09-1.59-0.28c-0.49-0.18-0.91-0.45-1.26-0.79c-0.36-0.34-0.63-0.75-0.83-1.23
							c-0.2-0.48-0.3-1-0.3-1.58c0-0.58,0.1-1.11,0.3-1.59c0.2-0.47,0.48-0.87,0.83-1.2c0.35-0.33,0.78-0.58,1.26-0.76
							c0.49-0.18,1.02-0.27,1.59-0.27c0.57,0,1.1,0.09,1.59,0.27c0.49,0.18,0.91,0.44,1.27,0.76c0.35,0.33,0.63,0.73,0.83,1.2
							C28.03,85.39,28.13,85.91,28.13,86.5z M26.23,86.5c0-0.32-0.05-0.61-0.15-0.89c-0.1-0.27-0.25-0.51-0.43-0.71
							c-0.18-0.19-0.4-0.35-0.66-0.46c-0.26-0.11-0.54-0.17-0.85-0.17c-0.31,0-0.6,0.05-0.85,0.17c-0.25,0.11-0.48,0.27-0.66,0.46
							c-0.19,0.2-0.33,0.43-0.43,0.71c-0.1,0.27-0.15,0.57-0.15,0.89c0,0.33,0.05,0.63,0.16,0.91c0.1,0.28,0.25,0.52,0.43,0.72
							c0.18,0.2,0.4,0.36,0.66,0.47c0.25,0.11,0.54,0.17,0.85,0.17c0.31,0,0.59-0.06,0.85-0.17c0.26-0.11,0.48-0.27,0.66-0.47
							c0.19-0.2,0.33-0.44,0.44-0.72C26.18,87.13,26.23,86.83,26.23,86.5z"/>
						<path class="st2" d="M33.22,90.18l-1.59-2.9h-0.6v2.9H29.3v-7.3h2.79c0.35,0,0.7,0.04,1.03,0.11c0.34,0.07,0.64,0.19,0.9,0.37
							c0.26,0.17,0.48,0.4,0.64,0.68c0.16,0.28,0.24,0.63,0.24,1.05c0,0.5-0.13,0.91-0.4,1.25c-0.27,0.34-0.64,0.58-1.12,0.72
							l1.91,3.13H33.22z M33.15,85.12c0-0.17-0.04-0.31-0.11-0.42c-0.07-0.11-0.17-0.19-0.28-0.25c-0.11-0.06-0.24-0.1-0.38-0.12
							c-0.14-0.02-0.28-0.03-0.41-0.03h-0.95V86h0.84c0.15,0,0.29-0.01,0.45-0.04c0.15-0.02,0.29-0.07,0.42-0.13
							c0.13-0.06,0.23-0.15,0.31-0.27C33.11,85.45,33.15,85.3,33.15,85.12z"/>
						<path class="st2" d="M38.75,90.18v-7.3h1.78v5.77h2.84v1.54H38.75z"/>
						<path class="st2" d="M49.16,90.18l-0.57-1.43h-2.83l-0.54,1.43h-1.92l3.07-7.3h1.72l3.04,7.3H49.16z M47.19,84.83l-0.93,2.51
							h1.84L47.19,84.83z"/>
						<path class="st2" d="M54.14,90.18v-7.3h4.93v1.49h-3.22v1.38h3.04v1.41h-3.04v1.52h3.41v1.51H54.14z"/>
						<path class="st2" d="M67.26,86.51c0,0.64-0.12,1.19-0.36,1.65c-0.24,0.46-0.55,0.84-0.94,1.15c-0.39,0.3-0.83,0.52-1.32,0.66
							c-0.49,0.14-0.99,0.21-1.49,0.21h-2.73v-7.3h2.65c0.52,0,1.03,0.06,1.53,0.18c0.5,0.12,0.95,0.32,1.35,0.6
							c0.39,0.28,0.71,0.65,0.95,1.12C67.14,85.24,67.26,85.82,67.26,86.51z M65.42,86.51c0-0.41-0.07-0.76-0.2-1.03
							c-0.13-0.27-0.31-0.49-0.54-0.65c-0.22-0.16-0.48-0.28-0.77-0.35c-0.29-0.07-0.58-0.1-0.88-0.1h-0.88v4.27h0.84
							c0.32,0,0.62-0.04,0.92-0.11c0.29-0.07,0.55-0.19,0.78-0.36c0.22-0.16,0.4-0.39,0.54-0.66
							C65.35,87.26,65.42,86.92,65.42,86.51z"/>
						<path class="st2" d="M74.42,88.63c-0.15,0.36-0.36,0.67-0.64,0.93c-0.28,0.26-0.61,0.46-1,0.6c-0.39,0.15-0.82,0.22-1.3,0.22
							c-0.48,0-0.92-0.07-1.3-0.22c-0.39-0.14-0.72-0.34-0.98-0.6c-0.27-0.26-0.48-0.57-0.62-0.93c-0.14-0.36-0.22-0.76-0.22-1.2
							v-4.55h1.76v4.41c0,0.2,0.03,0.39,0.08,0.57c0.05,0.18,0.13,0.34,0.24,0.48c0.11,0.14,0.25,0.25,0.42,0.34
							c0.17,0.08,0.39,0.12,0.64,0.12c0.25,0,0.46-0.04,0.64-0.12c0.18-0.08,0.32-0.19,0.43-0.34c0.11-0.14,0.19-0.3,0.24-0.48
							c0.05-0.18,0.07-0.37,0.07-0.57v-4.41h1.77v4.55C74.64,87.87,74.57,88.27,74.42,88.63z"/>
						<path class="st2" d="M81.31,90.05c-0.48,0.21-1.02,0.32-1.65,0.32c-0.57,0-1.09-0.09-1.57-0.28c-0.48-0.18-0.9-0.45-1.25-0.79
							c-0.35-0.34-0.63-0.75-0.83-1.22c-0.2-0.48-0.3-1-0.3-1.57c0-0.58,0.1-1.12,0.31-1.59c0.2-0.48,0.48-0.88,0.84-1.21
							c0.36-0.33,0.78-0.59,1.26-0.77c0.48-0.18,1.01-0.27,1.56-0.27c0.52,0,1.03,0.09,1.53,0.27c0.5,0.18,0.91,0.45,1.22,0.8
							l-1.2,1.2c-0.17-0.23-0.38-0.4-0.65-0.51c-0.27-0.11-0.55-0.16-0.83-0.16c-0.31,0-0.59,0.06-0.85,0.17
							c-0.26,0.11-0.48,0.27-0.67,0.47c-0.19,0.2-0.33,0.44-0.43,0.71c-0.1,0.27-0.16,0.57-0.16,0.89c0,0.33,0.05,0.63,0.16,0.91
							c0.1,0.27,0.25,0.51,0.43,0.71c0.18,0.19,0.4,0.35,0.66,0.46c0.26,0.11,0.54,0.17,0.84,0.17c0.35,0,0.66-0.07,0.92-0.21
							c0.26-0.14,0.47-0.31,0.63-0.53l1.23,1.15C82.19,89.54,81.79,89.84,81.31,90.05z"/>
						<path class="st2" d="M88.11,90.18l-0.57-1.43h-2.84l-0.54,1.43h-1.93l3.07-7.3h1.72l3.04,7.3H88.11z M86.15,84.83l-0.93,2.51
							h1.84L86.15,84.83z"/>
						<path class="st2" d="M95.75,90.05c-0.48,0.21-1.02,0.32-1.65,0.32c-0.57,0-1.09-0.09-1.57-0.28c-0.48-0.18-0.9-0.45-1.25-0.79
							c-0.35-0.34-0.63-0.75-0.83-1.22c-0.2-0.48-0.3-1-0.3-1.57c0-0.58,0.1-1.12,0.31-1.59c0.2-0.48,0.49-0.88,0.84-1.21
							c0.36-0.33,0.78-0.59,1.26-0.77c0.48-0.18,1-0.27,1.56-0.27c0.52,0,1.03,0.09,1.53,0.27c0.5,0.18,0.91,0.45,1.22,0.8l-1.2,1.2
							c-0.17-0.23-0.38-0.4-0.65-0.51c-0.27-0.11-0.55-0.16-0.83-0.16c-0.31,0-0.6,0.06-0.85,0.17c-0.26,0.11-0.48,0.27-0.67,0.47
							c-0.19,0.2-0.33,0.44-0.44,0.71c-0.1,0.27-0.15,0.57-0.15,0.89c0,0.33,0.05,0.63,0.15,0.91c0.1,0.27,0.25,0.51,0.43,0.71
							c0.18,0.19,0.4,0.35,0.66,0.46c0.25,0.11,0.53,0.17,0.84,0.17c0.35,0,0.66-0.07,0.92-0.21c0.26-0.14,0.47-0.31,0.63-0.53
							l1.23,1.15C96.63,89.54,96.23,89.84,95.75,90.05z"/>
						<path class="st2" d="M97.71,90.18v-7.3h1.78v7.3H97.71z"/>
						<path class="st2" d="M108.64,86.5c0,0.58-0.1,1.1-0.3,1.58c-0.2,0.48-0.48,0.89-0.83,1.23c-0.36,0.34-0.78,0.6-1.27,0.79
							c-0.49,0.19-1.02,0.28-1.59,0.28c-0.57,0-1.1-0.09-1.59-0.28c-0.49-0.18-0.91-0.45-1.26-0.79c-0.36-0.34-0.63-0.75-0.83-1.23
							c-0.2-0.48-0.3-1-0.3-1.58c0-0.58,0.1-1.11,0.3-1.59c0.2-0.47,0.48-0.87,0.83-1.2c0.36-0.33,0.78-0.58,1.26-0.76
							c0.49-0.18,1.02-0.27,1.59-0.27c0.57,0,1.1,0.09,1.59,0.27c0.49,0.18,0.91,0.44,1.27,0.76c0.35,0.33,0.63,0.73,0.83,1.2
							C108.54,85.39,108.64,85.91,108.64,86.5z M106.74,86.5c0-0.32-0.05-0.61-0.16-0.89c-0.1-0.27-0.25-0.51-0.43-0.71
							c-0.18-0.19-0.4-0.35-0.66-0.46c-0.26-0.11-0.54-0.17-0.85-0.17c-0.31,0-0.59,0.05-0.85,0.17c-0.26,0.11-0.48,0.27-0.66,0.46
							c-0.19,0.2-0.33,0.43-0.43,0.71c-0.1,0.27-0.15,0.57-0.15,0.89c0,0.33,0.05,0.63,0.16,0.91c0.1,0.28,0.25,0.52,0.43,0.72
							c0.18,0.2,0.4,0.36,0.66,0.47c0.25,0.11,0.54,0.17,0.85,0.17c0.31,0,0.59-0.06,0.85-0.17c0.26-0.11,0.48-0.27,0.66-0.47
							c0.19-0.2,0.33-0.44,0.44-0.72C106.69,87.13,106.74,86.83,106.74,86.5z M104.99,82.3h-1.28l1.08-1.48h1.72L104.99,82.3z"/>
						<path class="st2" d="M114.46,90.18l-2.95-4.78h-0.03l0.04,4.78h-1.72v-7.3h2.02l2.94,4.77h0.03l-0.04-4.77h1.72v7.3H114.46z"
							/>
						<path class="st2" d="M125.35,90.18l-0.57-1.43h-2.83l-0.54,1.43h-1.93l3.07-7.3h1.72l3.04,7.3H125.35z M123.39,84.83
							l-0.93,2.51h1.84L123.39,84.83z"/>
						<path class="st2" d="M127.93,90.18v-7.3h1.78v5.77h2.84v1.54H127.93z"/>
						<path class="st2" d="M139.58,84.78c-0.15-0.19-0.35-0.34-0.59-0.46c-0.24-0.11-0.48-0.17-0.71-0.17
							c-0.12,0-0.24,0.01-0.36,0.03c-0.12,0.02-0.23,0.06-0.33,0.12c-0.1,0.06-0.18,0.14-0.24,0.23c-0.07,0.09-0.1,0.21-0.1,0.36
							c0,0.12,0.03,0.23,0.08,0.31c0.05,0.08,0.13,0.15,0.23,0.21c0.1,0.06,0.22,0.12,0.36,0.17c0.14,0.05,0.29,0.1,0.46,0.16
							c0.25,0.08,0.51,0.17,0.78,0.27c0.27,0.1,0.51,0.23,0.74,0.4c0.22,0.17,0.4,0.37,0.55,0.62c0.15,0.24,0.22,0.55,0.22,0.91
							c0,0.42-0.08,0.78-0.23,1.09c-0.16,0.31-0.36,0.56-0.63,0.76c-0.26,0.2-0.56,0.35-0.9,0.45c-0.34,0.1-0.69,0.14-1.05,0.14
							c-0.52,0-1.03-0.09-1.52-0.27c-0.49-0.18-0.9-0.44-1.22-0.78l1.16-1.18c0.18,0.22,0.42,0.4,0.71,0.55
							c0.29,0.15,0.58,0.22,0.87,0.22c0.13,0,0.26-0.01,0.38-0.04c0.12-0.03,0.23-0.07,0.33-0.13c0.09-0.06,0.17-0.15,0.22-0.25
							c0.05-0.1,0.08-0.23,0.08-0.37c0-0.14-0.03-0.25-0.1-0.35c-0.07-0.1-0.17-0.19-0.3-0.26c-0.13-0.08-0.29-0.15-0.48-0.22
							c-0.19-0.07-0.4-0.14-0.65-0.21c-0.23-0.08-0.46-0.17-0.69-0.27c-0.22-0.1-0.42-0.24-0.6-0.4c-0.18-0.16-0.32-0.36-0.42-0.59
							c-0.11-0.23-0.16-0.51-0.16-0.84c0-0.4,0.08-0.75,0.25-1.04c0.17-0.29,0.38-0.53,0.65-0.71c0.27-0.18,0.57-0.32,0.91-0.41
							c0.34-0.09,0.68-0.13,1.02-0.13c0.41,0,0.84,0.08,1.27,0.23c0.43,0.15,0.81,0.37,1.13,0.67L139.58,84.78z"/>
						<path class="st2" d="M141.83,90.18v-7.3h4.93v1.49h-3.22v1.38h3.04v1.41h-3.04v1.52h3.41v1.51H141.83z"/>
						<path class="st2" d="M152.03,90.18l-1.59-2.9h-0.6v2.9h-1.73v-7.3h2.79c0.35,0,0.69,0.04,1.03,0.11
							c0.33,0.07,0.63,0.19,0.9,0.37c0.27,0.17,0.48,0.4,0.64,0.68c0.16,0.28,0.24,0.63,0.24,1.05c0,0.5-0.13,0.91-0.4,1.25
							c-0.27,0.34-0.64,0.58-1.12,0.72l1.91,3.13H152.03z M151.96,85.12c0-0.17-0.04-0.31-0.11-0.42c-0.07-0.11-0.17-0.19-0.28-0.25
							c-0.12-0.06-0.24-0.1-0.39-0.12c-0.14-0.02-0.28-0.03-0.41-0.03h-0.95V86h0.84c0.15,0,0.3-0.01,0.45-0.04
							c0.15-0.02,0.29-0.07,0.41-0.13c0.13-0.06,0.23-0.15,0.31-0.27C151.92,85.45,151.96,85.3,151.96,85.12z"/>
						<path class="st2" d="M158.48,90.18h-1.77l-2.77-7.3h1.99l1.7,5.18h0.04l1.69-5.18h1.96L158.48,90.18z"/>
						<path class="st2" d="M161.91,90.18v-7.3h1.78v7.3H161.91z"/>
						<path class="st2" d="M170.45,90.05c-0.48,0.21-1.02,0.32-1.65,0.32c-0.57,0-1.09-0.09-1.57-0.28
							c-0.48-0.18-0.9-0.45-1.25-0.79c-0.35-0.34-0.63-0.75-0.83-1.22c-0.2-0.48-0.3-1-0.3-1.57c0-0.58,0.1-1.12,0.31-1.59
							c0.2-0.48,0.48-0.88,0.84-1.21c0.36-0.33,0.78-0.59,1.26-0.77c0.48-0.18,1-0.27,1.56-0.27c0.52,0,1.03,0.09,1.53,0.27
							c0.5,0.18,0.91,0.45,1.22,0.8l-1.2,1.2c-0.17-0.23-0.38-0.4-0.65-0.51c-0.27-0.11-0.55-0.16-0.83-0.16
							c-0.31,0-0.6,0.06-0.85,0.17c-0.26,0.11-0.48,0.27-0.67,0.47c-0.19,0.2-0.33,0.44-0.43,0.71c-0.1,0.27-0.16,0.57-0.16,0.89
							c0,0.33,0.05,0.63,0.16,0.91c0.1,0.27,0.25,0.51,0.43,0.71c0.18,0.19,0.4,0.35,0.66,0.46c0.26,0.11,0.54,0.17,0.84,0.17
							c0.35,0,0.66-0.07,0.92-0.21c0.26-0.14,0.47-0.31,0.63-0.53l1.23,1.15C171.32,89.54,170.92,89.84,170.45,90.05z"/>
						<path class="st2" d="M172.4,90.18v-7.3h1.78v7.3H172.4z"/>
						<path class="st2" d="M183.33,86.5c0,0.58-0.1,1.1-0.3,1.58c-0.2,0.48-0.48,0.89-0.83,1.23c-0.36,0.34-0.78,0.6-1.27,0.79
							c-0.49,0.19-1.02,0.28-1.59,0.28c-0.57,0-1.1-0.09-1.59-0.28c-0.49-0.18-0.91-0.45-1.26-0.79c-0.36-0.34-0.63-0.75-0.83-1.23
							c-0.2-0.48-0.3-1-0.3-1.58c0-0.58,0.1-1.11,0.3-1.59c0.2-0.47,0.48-0.87,0.83-1.2c0.35-0.33,0.78-0.58,1.26-0.76
							c0.49-0.18,1.02-0.27,1.59-0.27c0.57,0,1.1,0.09,1.59,0.27c0.49,0.18,0.91,0.44,1.27,0.76c0.35,0.33,0.63,0.73,0.83,1.2
							C183.23,85.39,183.33,85.91,183.33,86.5z M181.44,86.5c0-0.32-0.05-0.61-0.16-0.89c-0.1-0.27-0.25-0.51-0.43-0.71
							c-0.18-0.19-0.4-0.35-0.66-0.46c-0.26-0.11-0.54-0.17-0.85-0.17c-0.31,0-0.59,0.05-0.85,0.17c-0.26,0.11-0.48,0.27-0.66,0.46
							c-0.19,0.2-0.33,0.43-0.43,0.71c-0.1,0.27-0.15,0.57-0.15,0.89c0,0.33,0.05,0.63,0.16,0.91c0.1,0.28,0.25,0.52,0.43,0.72
							c0.18,0.2,0.4,0.36,0.66,0.47c0.25,0.11,0.54,0.17,0.85,0.17c0.31,0,0.59-0.06,0.85-0.17c0.25-0.11,0.48-0.27,0.66-0.47
							c0.19-0.2,0.33-0.44,0.43-0.72C181.38,87.13,181.44,86.83,181.44,86.5z"/>
						<path class="st2" d="M193.93,86.51c0,0.64-0.12,1.19-0.36,1.65c-0.24,0.46-0.55,0.84-0.94,1.15c-0.39,0.3-0.83,0.52-1.32,0.66
							c-0.49,0.14-0.99,0.21-1.49,0.21h-2.73v-7.3h2.65c0.52,0,1.03,0.06,1.53,0.18c0.5,0.12,0.95,0.32,1.35,0.6
							c0.39,0.28,0.71,0.65,0.95,1.12C193.81,85.24,193.93,85.82,193.93,86.51z M192.09,86.51c0-0.41-0.07-0.76-0.2-1.03
							c-0.13-0.27-0.31-0.49-0.54-0.65c-0.22-0.16-0.48-0.28-0.77-0.35c-0.29-0.07-0.58-0.1-0.89-0.1h-0.88v4.27h0.84
							c0.32,0,0.62-0.04,0.92-0.11c0.29-0.07,0.55-0.19,0.78-0.36c0.22-0.16,0.4-0.39,0.54-0.66
							C192.02,87.26,192.09,86.92,192.09,86.51z"/>
						<path class="st2" d="M195.1,90.18v-7.3h4.93v1.49h-3.22v1.38h3.04v1.41h-3.04v1.52h3.41v1.51H195.1z"/>
						<path class="st2" d="M201.38,90.18v-7.3h1.78v5.77H206v1.54H201.38z"/>
						<path class="st2" d="M214.72,85.13c0,0.42-0.08,0.79-0.24,1.08c-0.16,0.29-0.37,0.53-0.64,0.71
							c-0.27,0.18-0.58,0.31-0.93,0.39c-0.35,0.08-0.72,0.13-1.1,0.13h-0.88v2.75h-1.77v-7.3h2.69c0.4,0,0.78,0.04,1.12,0.12
							c0.35,0.08,0.65,0.21,0.91,0.38c0.26,0.18,0.46,0.41,0.61,0.69C214.65,84.36,214.72,84.71,214.72,85.13z M212.95,85.13
							c0-0.17-0.04-0.31-0.1-0.42c-0.07-0.11-0.16-0.2-0.28-0.26c-0.12-0.06-0.25-0.1-0.4-0.12c-0.15-0.02-0.3-0.03-0.46-0.03h-0.78
							v1.72h0.75c0.17,0,0.32-0.01,0.48-0.04c0.15-0.03,0.29-0.08,0.41-0.14c0.12-0.07,0.22-0.16,0.29-0.28
							C212.92,85.45,212.95,85.31,212.95,85.13z"/>
						<path class="st2" d="M221.77,88.63c-0.15,0.36-0.36,0.67-0.64,0.93c-0.28,0.26-0.61,0.46-1,0.6c-0.39,0.15-0.82,0.22-1.3,0.22
							c-0.48,0-0.92-0.07-1.3-0.22c-0.39-0.14-0.71-0.34-0.98-0.6c-0.27-0.26-0.48-0.57-0.62-0.93c-0.15-0.36-0.22-0.76-0.22-1.2
							v-4.55h1.76v4.41c0,0.2,0.03,0.39,0.08,0.57c0.05,0.18,0.13,0.34,0.24,0.48c0.11,0.14,0.25,0.25,0.42,0.34
							c0.18,0.08,0.39,0.12,0.64,0.12c0.25,0,0.46-0.04,0.64-0.12c0.17-0.08,0.32-0.19,0.43-0.34c0.11-0.14,0.19-0.3,0.24-0.48
							c0.05-0.18,0.07-0.37,0.07-0.57v-4.41H222v4.55C222,87.87,221.92,88.27,221.77,88.63z"/>
						<path class="st2" d="M223.43,90.18v-7.3h4.93v1.49h-3.22v1.38h3.04v1.41h-3.04v1.52h3.4v1.51H223.43z"/>
						<path class="st2" d="M235.42,88.06c0,0.4-0.08,0.73-0.24,1c-0.16,0.27-0.37,0.49-0.63,0.66c-0.26,0.17-0.56,0.28-0.9,0.36
							c-0.33,0.07-0.68,0.11-1.03,0.11h-2.92v-7.3h2.92c0.28,0,0.57,0.03,0.87,0.09c0.3,0.06,0.57,0.16,0.81,0.3
							c0.24,0.14,0.44,0.33,0.59,0.57c0.15,0.24,0.23,0.55,0.23,0.92c0,0.41-0.11,0.74-0.33,1.01c-0.22,0.26-0.51,0.45-0.87,0.57
							v0.02c0.21,0.03,0.4,0.1,0.58,0.19c0.18,0.09,0.34,0.21,0.48,0.36c0.13,0.15,0.24,0.31,0.32,0.51
							C235.38,87.6,235.42,87.81,235.42,88.06z M233.41,84.99c0-0.25-0.09-0.43-0.28-0.54c-0.19-0.11-0.47-0.17-0.84-0.17h-0.87
							v1.51h0.95c0.33,0,0.59-0.07,0.77-0.2C233.32,85.45,233.41,85.25,233.41,84.99z M233.65,87.89c0-0.3-0.11-0.51-0.34-0.63
							c-0.23-0.12-0.53-0.17-0.91-0.17h-0.98v1.67h1c0.14,0,0.28-0.01,0.43-0.04c0.15-0.02,0.28-0.06,0.4-0.13
							c0.12-0.06,0.22-0.15,0.3-0.26C233.61,88.22,233.65,88.07,233.65,87.89z"/>
						<path class="st2" d="M236.59,90.18v-7.3h1.78v5.77h2.84v1.54H236.59z"/>
						<path class="st2" d="M249.36,86.5c0,0.58-0.1,1.1-0.3,1.58c-0.2,0.48-0.48,0.89-0.83,1.23c-0.36,0.34-0.78,0.6-1.27,0.79
							c-0.49,0.19-1.02,0.28-1.59,0.28c-0.57,0-1.1-0.09-1.59-0.28c-0.49-0.18-0.91-0.45-1.26-0.79c-0.35-0.34-0.63-0.75-0.83-1.23
							c-0.2-0.48-0.3-1-0.3-1.58c0-0.58,0.1-1.11,0.3-1.59c0.2-0.47,0.48-0.87,0.83-1.2c0.36-0.33,0.78-0.58,1.26-0.76
							c0.49-0.18,1.02-0.27,1.59-0.27c0.57,0,1.1,0.09,1.59,0.27c0.49,0.18,0.91,0.44,1.27,0.76c0.35,0.33,0.63,0.73,0.83,1.2
							C249.26,85.39,249.36,85.91,249.36,86.5z M247.47,86.5c0-0.32-0.05-0.61-0.16-0.89c-0.1-0.27-0.25-0.51-0.43-0.71
							c-0.18-0.19-0.4-0.35-0.66-0.46c-0.26-0.11-0.54-0.17-0.85-0.17c-0.31,0-0.59,0.05-0.85,0.17c-0.26,0.11-0.48,0.27-0.66,0.46
							c-0.19,0.2-0.33,0.43-0.43,0.71c-0.1,0.27-0.15,0.57-0.15,0.89c0,0.33,0.05,0.63,0.16,0.91c0.1,0.28,0.25,0.52,0.43,0.72
							c0.18,0.2,0.4,0.36,0.66,0.47c0.26,0.11,0.54,0.17,0.85,0.17c0.31,0,0.59-0.06,0.85-0.17c0.25-0.11,0.48-0.27,0.66-0.47
							c0.19-0.2,0.33-0.44,0.43-0.72C247.42,87.13,247.47,86.83,247.47,86.5z"/>
						<path class="st2" d="M251.5,85.67h-1.3l0.74-2.8h1.48L251.5,85.67z M253.66,85.67h-1.31l0.77-2.8h1.48L253.66,85.67z"/>
					</g>
					<g>
						<g>
							<path class="st3" d="M286.79,83.6c-0.16-0.21-0.37-0.37-0.64-0.49c-0.26-0.12-0.51-0.18-0.76-0.18
								c-0.13,0-0.25,0.01-0.38,0.03c-0.13,0.02-0.25,0.06-0.35,0.13c-0.1,0.06-0.19,0.14-0.26,0.24c-0.07,0.1-0.1,0.23-0.1,0.38
								c0,0.13,0.03,0.24,0.08,0.33c0.05,0.09,0.14,0.17,0.24,0.23c0.11,0.07,0.23,0.13,0.38,0.18c0.15,0.05,0.31,0.11,0.5,0.17
								c0.27,0.09,0.54,0.19,0.83,0.29c0.29,0.11,0.55,0.25,0.78,0.42c0.24,0.18,0.43,0.4,0.59,0.66c0.16,0.26,0.23,0.59,0.23,0.98
								c0,0.45-0.08,0.84-0.25,1.16c-0.17,0.33-0.39,0.6-0.67,0.81c-0.28,0.21-0.6,0.37-0.96,0.48c-0.36,0.1-0.73,0.15-1.12,0.15
								c-0.56,0-1.1-0.1-1.63-0.29c-0.52-0.19-0.96-0.47-1.31-0.83l1.24-1.26c0.19,0.23,0.44,0.43,0.76,0.59
								c0.31,0.16,0.62,0.24,0.94,0.24c0.14,0,0.28-0.02,0.41-0.05c0.13-0.03,0.25-0.07,0.35-0.14c0.1-0.07,0.18-0.15,0.24-0.27
								c0.06-0.11,0.09-0.24,0.09-0.4c0-0.15-0.04-0.27-0.11-0.38c-0.07-0.1-0.18-0.2-0.32-0.28c-0.14-0.08-0.31-0.16-0.51-0.23
								c-0.2-0.07-0.43-0.15-0.69-0.23c-0.25-0.08-0.5-0.18-0.74-0.29c-0.24-0.11-0.45-0.25-0.64-0.42
								c-0.19-0.17-0.34-0.38-0.45-0.63c-0.11-0.25-0.17-0.55-0.17-0.9c0-0.43,0.09-0.81,0.26-1.11c0.18-0.31,0.41-0.56,0.7-0.76
								c0.29-0.2,0.61-0.34,0.97-0.44c0.36-0.09,0.73-0.14,1.09-0.14c0.44,0,0.9,0.08,1.36,0.24c0.46,0.16,0.86,0.4,1.21,0.72
								L286.79,83.6z"/>
							<path class="st3" d="M289.19,89.38v-7.81h5.26v1.59h-3.44v1.48h3.25v1.51h-3.25v1.62h3.64v1.61H289.19z"/>
							<path class="st3" d="M301.51,89.24c-0.51,0.23-1.1,0.35-1.76,0.35c-0.6,0-1.16-0.1-1.68-0.3c-0.51-0.2-0.96-0.48-1.33-0.85
								c-0.38-0.36-0.67-0.8-0.88-1.3c-0.21-0.51-0.32-1.06-0.32-1.68c0-0.62,0.11-1.19,0.33-1.7c0.22-0.51,0.52-0.94,0.9-1.3
								c0.38-0.35,0.83-0.63,1.35-0.82c0.52-0.19,1.07-0.29,1.67-0.29c0.55,0,1.1,0.1,1.63,0.29c0.53,0.2,0.97,0.48,1.3,0.86
								l-1.28,1.28c-0.18-0.24-0.41-0.42-0.7-0.54c-0.29-0.12-0.58-0.18-0.89-0.18c-0.33,0-0.64,0.06-0.91,0.18
								c-0.28,0.12-0.51,0.29-0.71,0.5c-0.2,0.21-0.35,0.47-0.46,0.76c-0.11,0.29-0.17,0.61-0.17,0.95c0,0.35,0.06,0.68,0.17,0.97
								c0.11,0.29,0.26,0.54,0.46,0.76c0.2,0.21,0.43,0.37,0.7,0.49c0.27,0.11,0.57,0.17,0.9,0.17c0.38,0,0.71-0.07,0.98-0.22
								c0.28-0.15,0.5-0.34,0.68-0.57l1.32,1.23C302.45,88.69,302.02,89.01,301.51,89.24z"/>
							<path class="st3" d="M309.21,89.24c-0.51,0.23-1.09,0.35-1.76,0.35c-0.6,0-1.16-0.1-1.68-0.3c-0.51-0.2-0.96-0.48-1.33-0.85
								c-0.38-0.36-0.67-0.8-0.88-1.3c-0.21-0.51-0.32-1.06-0.32-1.68c0-0.62,0.11-1.19,0.33-1.7c0.22-0.51,0.52-0.94,0.9-1.3
								c0.38-0.35,0.83-0.63,1.35-0.82c0.52-0.19,1.07-0.29,1.67-0.29c0.55,0,1.1,0.1,1.63,0.29c0.53,0.2,0.97,0.48,1.3,0.86
								l-1.28,1.28c-0.18-0.24-0.41-0.42-0.7-0.54c-0.29-0.12-0.58-0.18-0.89-0.18c-0.33,0-0.64,0.06-0.91,0.18
								c-0.28,0.12-0.52,0.29-0.71,0.5c-0.2,0.21-0.35,0.47-0.47,0.76c-0.11,0.29-0.16,0.61-0.16,0.95c0,0.35,0.05,0.68,0.16,0.97
								c0.11,0.29,0.26,0.54,0.46,0.76c0.2,0.21,0.43,0.37,0.7,0.49c0.27,0.11,0.57,0.17,0.9,0.17c0.38,0,0.71-0.07,0.98-0.22
								c0.28-0.15,0.51-0.34,0.67-0.57l1.32,1.23C310.15,88.69,309.72,89.01,309.21,89.24z"/>
							<path class="st3" d="M311.3,89.38v-7.81h1.9v7.81H311.3z"/>
							<path class="st3" d="M322.98,85.44c0,0.62-0.11,1.18-0.32,1.69c-0.21,0.51-0.51,0.95-0.89,1.31
								c-0.38,0.37-0.83,0.65-1.36,0.85c-0.52,0.2-1.09,0.3-1.7,0.3c-0.61,0-1.18-0.1-1.7-0.3c-0.52-0.2-0.97-0.48-1.35-0.85
								c-0.38-0.36-0.68-0.8-0.89-1.31c-0.21-0.51-0.32-1.07-0.32-1.69c0-0.62,0.11-1.19,0.32-1.69c0.21-0.5,0.51-0.93,0.89-1.29
								c0.38-0.35,0.83-0.63,1.35-0.82c0.52-0.19,1.09-0.29,1.7-0.29c0.61,0,1.18,0.1,1.7,0.29c0.52,0.19,0.97,0.46,1.36,0.82
								c0.38,0.35,0.68,0.78,0.89,1.29C322.88,84.25,322.98,84.82,322.98,85.44z M320.96,85.44c0-0.34-0.05-0.65-0.17-0.95
								c-0.11-0.29-0.26-0.55-0.46-0.75c-0.2-0.21-0.43-0.38-0.71-0.5c-0.28-0.12-0.58-0.18-0.91-0.18c-0.33,0-0.63,0.06-0.91,0.18
								c-0.27,0.12-0.51,0.29-0.71,0.5c-0.2,0.21-0.35,0.46-0.46,0.75c-0.11,0.29-0.16,0.61-0.16,0.95c0,0.35,0.05,0.68,0.17,0.98
								c0.11,0.3,0.26,0.55,0.46,0.76c0.2,0.21,0.43,0.38,0.7,0.5c0.27,0.12,0.58,0.18,0.91,0.18c0.33,0,0.64-0.06,0.91-0.18
								c0.27-0.12,0.51-0.29,0.71-0.5c0.2-0.21,0.35-0.47,0.47-0.76C320.91,86.12,320.96,85.79,320.96,85.44z M319.09,80.95h-1.37
								l1.15-1.59h1.84L319.09,80.95z"/>
							<path class="st3" d="M329.21,89.38l-3.15-5.11h-0.03l0.04,5.11h-1.84v-7.81h2.16l3.14,5.1h0.03l-0.04-5.1h1.84v7.81H329.21z"
								/>
						</g>
					</g>
				</g>
			</g>
			<text transform="matrix(1.0031 0 0 1 270.2636 66.7626)" class="st2 st4 st5 st6">56</text>
		</g>
	</g>
	<text transform="matrix(1.0031 0 0 1 277.3944 108.1552)" class="st7 st8 st9">VERACRUZ</text>
</g>
</svg>
